<?xml version="1.0" standalone="no"?>
<!DOCTYPE svg PUBLIC "-//W3C//DTD SVG 20010904//EN"
 "http://www.w3.org/TR/2001/REC-SVG-20010904/DTD/svg10.dtd">
<svg version="1.0" xmlns="http://www.w3.org/2000/svg"
 width="6000.000000pt" height="6000.000000pt" viewBox="0 0 6000.000000 6000.000000"
 preserveAspectRatio="xMidYMid meet">

<g transform="translate(0.000000,6000.000000) scale(0.100000,-0.100000)"
fill="#000000" stroke="none">
<path d="M10644 45890 c-101 -20 -212 -110 -257 -208 l-22 -47 -3 -4242 -2
-4243 6155 0 6155 0 -2 4243 -3 4242 -28 57 c-38 77 -96 134 -175 171 l-67 32
-5855 1 c-3220 1 -5874 -2 -5896 -6z m433 -182 c34 -20 73 -89 73 -129 -1 -42
-36 -105 -71 -126 -74 -44 -142 -37 -199 21 -27 29 -34 45 -38 89 -7 82 28
136 105 162 44 15 85 10 130 -17z m464 22 c31 0 98 -68 109 -111 41 -152 -149
-259 -259 -145 -81 83 -48 211 65 251 22 8 45 12 52 10 8 -3 22 -5 33 -5z
m520 -5 c37 -9 85 -62 97 -107 30 -111 -77 -218 -187 -188 -81 22 -133 109
-112 188 18 66 105 129 161 116 8 -2 27 -6 41 -9z m10459 -4440 l0 -3975
-6002 2 -6003 3 -3 3973 -2 3972 6005 0 6005 0 0 -3975z"/>
<path d="M17105 44591 c-257 -30 -501 -122 -700 -263 -111 -78 -261 -227 -338
-335 -126 -176 -224 -412 -263 -628 -22 -127 -22 -398 0 -495 14 -60 15 -61
10 -15 -19 166 -22 210 -18 305 21 607 398 1132 960 1338 132 49 361 92 485
92 18 0 19 -20 19 -741 l0 -741 -181 -592 c-99 -325 -196 -641 -215 -703 l-35
-112 -57 21 c-212 77 -381 185 -543 347 -181 182 -296 372 -374 621 -19 63
-33 97 -30 76 12 -72 66 -219 122 -329 176 -345 464 -598 826 -726 99 -35 108
-37 85 -18 -14 11 8 89 197 705 117 381 214 694 217 697 2 2 237 -229 523
-515 l519 -519 -29 -26 c-139 -123 -215 -176 -350 -247 -49 -26 -85 -47 -80
-47 20 -1 200 101 279 157 107 76 276 247 356 360 159 225 237 444 261 730 29
361 -72 716 -289 1012 -71 97 -226 250 -329 323 -168 120 -398 217 -598 252
-107 19 -332 27 -430 16z"/>
<path d="M12197 44413 c-8 -8 -9 -4176 -1 -4197 5 -13 22 -16 88 -14 l81 2
-80 5 -80 6 -3 518 -2 517 82 2 83 2 -80 5 -80 6 0 520 0 520 78 0 c42 0 77 3
77 8 0 4 -36 7 -80 7 l-80 0 3 1043 2 1042 80 6 80 5 -81 2 c-44 1 -84 -1 -87
-5z"/>
<path d="M20526 44360 c-431 -54 -785 -297 -974 -668 -47 -92 -93 -211 -106
-277 -6 -26 -4 -31 15 -32 12 -1 287 -63 612 -138 l589 -137 604 151 c332 83
606 151 609 151 3 0 5 -10 6 -22 0 -13 3 -17 6 -11 2 7 -9 57 -26 110 -139
447 -504 773 -957 857 -104 19 -290 27 -378 16z m132 -624 c2 -585 1 -617 -15
-612 -10 3 -281 66 -602 140 -321 75 -585 137 -587 139 -6 6 66 207 95 265
193 383 573 644 992 681 52 4 99 7 104 6 7 -1 11 -217 13 -619z"/>
<path d="M13860 43627 l0 -266 497 -683 c273 -376 834 -1146 1247 -1713 412
-566 936 -1287 1165 -1602 l416 -572 3 174 2 175 -1077 1537 c-592 846 -1340
1914 -1661 2373 -322 459 -586 837 -588 839 -2 2 -4 -115 -4 -262z"/>
<path d="M12253 43363 c20 -2 54 -2 75 0 20 2 3 4 -38 4 -41 0 -58 -2 -37 -4z"/>
<path d="M19432 43350 c0 -14 2 -19 5 -12 2 6 2 18 0 25 -3 6 -5 1 -5 -13z"/>
<path d="M21892 43340 c0 -14 2 -19 5 -12 2 6 2 18 0 25 -3 6 -5 1 -5 -13z"/>
<path d="M19422 43295 c0 -16 2 -22 5 -12 2 9 2 23 0 30 -3 6 -5 -1 -5 -18z"/>
<path d="M21902 43280 c0 -14 2 -19 5 -12 2 6 2 18 0 25 -3 6 -5 1 -5 -13z"/>
<path d="M19412 43220 c0 -19 2 -27 5 -17 2 9 2 25 0 35 -3 9 -5 1 -5 -18z"/>
<path d="M21912 43110 c0 -19 2 -27 5 -17 2 9 2 25 0 35 -3 9 -5 1 -5 -18z"/>
<path d="M19412 42995 c0 -16 2 -22 5 -12 2 9 2 23 0 30 -3 6 -5 -1 -5 -18z"/>
<path d="M21902 42940 c0 -14 2 -19 5 -12 2 6 2 18 0 25 -3 6 -5 1 -5 -13z"/>
<path d="M19422 42925 c0 -16 2 -22 5 -12 2 9 2 23 0 30 -3 6 -5 -1 -5 -18z"/>
<path d="M21892 42880 c0 -14 2 -19 5 -12 2 6 2 18 0 25 -3 6 -5 1 -5 -13z"/>
<path d="M19432 42870 c0 -14 2 -19 5 -12 2 6 2 18 0 25 -3 6 -5 1 -5 -13z"/>
<path d="M21881 42834 c0 -11 3 -14 6 -6 3 7 2 16 -1 19 -3 4 -6 -2 -5 -13z"/>
<path d="M19441 42824 c0 -11 3 -14 6 -6 3 7 2 16 -1 19 -3 4 -6 -2 -5 -13z"/>
<path d="M21871 42794 c0 -11 3 -14 6 -6 3 7 2 16 -1 19 -3 4 -6 -2 -5 -13z"/>
<path d="M19451 42790 c0 -8 4 -24 9 -35 5 -13 9 -14 9 -5 0 8 -4 24 -9 35 -5
13 -9 14 -9 5z"/>
<path d="M21842 42703 c-15 -48 -8 -55 8 -8 7 20 10 38 8 41 -3 2 -10 -13 -16
-33z"/>
<path d="M19490 42665 c0 -5 5 -17 10 -25 5 -8 10 -10 10 -5 0 6 -5 17 -10 25
-5 8 -10 11 -10 5z"/>
<path d="M21812 42625 c-17 -37 -14 -45 4 -12 9 16 14 31 11 33 -2 2 -9 -7
-15 -21z"/>
<path d="M19510 42617 c0 -21 89 -178 143 -250 114 -154 265 -283 434 -370 91
-47 255 -107 289 -106 11 0 -19 11 -66 25 -197 58 -372 164 -526 318 -107 108
-163 183 -231 311 -23 44 -43 76 -43 72z"/>
<path d="M21776 42543 c-6 -14 -5 -15 5 -6 7 7 10 15 7 18 -3 3 -9 -2 -12 -12z"/>
<path d="M21741 42481 c-35 -67 -136 -194 -219 -273 -119 -114 -255 -200 -417
-265 -33 -13 -46 -21 -30 -18 47 10 208 89 287 142 96 63 236 198 310 297 56
75 104 156 93 156 -2 0 -14 -18 -24 -39z"/>
<path d="M20960 41900 c-20 -6 -21 -8 -5 -8 11 0 29 3 40 8 25 11 -1 11 -35 0z"/>
<path d="M20408 41883 c7 -3 16 -2 19 1 4 3 -2 6 -13 5 -11 0 -14 -3 -6 -6z"/>
<path d="M20908 41883 c7 -3 16 -2 19 1 4 3 -2 6 -13 5 -11 0 -14 -3 -6 -6z"/>
<path d="M20458 41873 c6 -2 18 -2 25 0 6 3 1 5 -13 5 -14 0 -19 -2 -12 -5z"/>
<path d="M20848 41873 c6 -2 18 -2 25 0 6 3 1 5 -13 5 -14 0 -19 -2 -12 -5z"/>
<path d="M20533 41863 c15 -2 37 -2 50 0 12 2 0 4 -28 4 -27 0 -38 -2 -22 -4z"/>
<path d="M20743 41863 c15 -2 37 -2 50 0 12 2 0 4 -28 4 -27 0 -38 -2 -22 -4z"/>
<path d="M17792 41724 c-18 -8 -70 -25 -115 -39 -45 -13 -74 -24 -65 -24 21
-1 197 55 218 69 22 14 1 11 -38 -6z"/>
<path d="M16888 41673 c7 -3 16 -2 19 1 4 3 -2 6 -13 5 -11 0 -14 -3 -6 -6z"/>
<path d="M16928 41663 c6 -2 18 -2 25 0 6 3 1 5 -13 5 -14 0 -19 -2 -12 -5z"/>
<path d="M16978 41653 c7 -3 16 -2 19 1 4 3 -2 6 -13 5 -11 0 -14 -3 -6 -6z"/>
<path d="M17568 41653 c7 -3 16 -2 19 1 4 3 -2 6 -13 5 -11 0 -14 -3 -6 -6z"/>
<path d="M17028 41643 c6 -2 18 -2 25 0 6 3 1 5 -13 5 -14 0 -19 -2 -12 -5z"/>
<path d="M17508 41643 c6 -2 18 -2 25 0 6 3 1 5 -13 5 -14 0 -19 -2 -12 -5z"/>
<path d="M17098 41633 c12 -2 30 -2 40 0 9 3 -1 5 -23 4 -22 0 -30 -2 -17 -4z"/>
<path d="M17428 41633 c12 -2 30 -2 40 0 9 3 -1 5 -23 4 -22 0 -30 -2 -17 -4z"/>
<path d="M17258 41623 c18 -2 45 -2 60 0 15 2 0 4 -33 4 -33 0 -45 -2 -27 -4z"/>
<path d="M12195 39680 c0 -283 1 -399 2 -257 2 141 2 373 0 515 -1 141 -2 25
-2 -258z"/>
<path d="M12195 39138 c-3 -13 -4 -250 -3 -528 l3 -505 3328 -3 3327 -2 -2 82
-2 83 -3 -77 -4 -78 -2484 0 -2485 0 0 515 c0 311 4 515 9 515 5 0 211 -43
457 -95 247 -52 453 -94 458 -92 6 2 -39 14 -99 26 -61 13 -273 58 -472 100
l-363 77 0 -523 0 -523 -830 0 -830 0 2 518 3 517 80 6 80 5 -82 2 c-78 2 -83
1 -88 -20z"/>
<path d="M14860 38935 c72 -18 100 -17 35 1 -27 7 -59 13 -70 13 -11 0 5 -7
35 -14z"/>
<path d="M14958 38913 c6 -2 18 -2 25 0 6 3 1 5 -13 5 -14 0 -19 -2 -12 -5z"/>
<path d="M15050 38895 c72 -18 100 -17 35 1 -27 7 -59 13 -70 13 -11 0 5 -7
35 -14z"/>
<path d="M15148 38873 c6 -2 18 -2 25 0 6 3 1 5 -13 5 -14 0 -19 -2 -12 -5z"/>
<path d="M15235 38855 c68 -18 103 -17 40 1 -27 7 -59 13 -70 13 -11 -1 3 -7
30 -14z"/>
<path d="M15338 38833 c6 -2 18 -2 25 0 6 3 1 5 -13 5 -14 0 -19 -2 -12 -5z"/>
<path d="M15425 38815 c28 -7 59 -13 70 -13 11 0 -2 6 -30 13 -27 7 -59 13
-70 13 -11 0 3 -6 30 -13z"/>
<path d="M15528 38793 c6 -2 18 -2 25 0 6 3 1 5 -13 5 -14 0 -19 -2 -12 -5z"/>
<path d="M15615 38775 c28 -7 59 -13 70 -13 11 0 -2 6 -30 13 -27 7 -59 13
-70 13 -11 0 3 -6 30 -13z"/>
<path d="M15718 38753 c6 -2 18 -2 25 0 6 3 1 5 -13 5 -14 0 -19 -2 -12 -5z"/>
<path d="M15761 38746 c8 -8 961 -207 967 -202 3 3 2 6 -2 6 -3 0 -219 45
-480 100 -466 99 -493 104 -485 96z"/>
<path d="M16815 38520 c44 -11 87 -19 95 -18 24 1 -122 36 -150 36 -14 0 11
-8 55 -18z"/>
<path d="M17005 38479 c44 -10 87 -18 95 -18 23 2 -122 37 -150 37 -14 0 11
-8 55 -19z"/>
<path d="M17128 38453 c6 -2 18 -2 25 0 6 3 1 5 -13 5 -14 0 -19 -2 -12 -5z"/>
<path d="M17175 38450 c-3 -5 -1 -10 4 -10 6 0 11 5 11 10 0 6 -2 10 -4 10 -3
0 -8 -4 -11 -10z"/>
<path d="M27336 44089 c-260 -164 -612 -489 -841 -774 -162 -202 -357 -538
-440 -760 -171 -457 -201 -910 -89 -1344 117 -453 409 -874 820 -1185 l82 -62
-38 -63 c-45 -74 -85 -194 -101 -301 -16 -106 -5 -360 20 -480 29 -133 116
-429 225 -770 l93 -291 -116 -117 c-130 -130 -196 -221 -269 -368 -152 -305
-187 -638 -102 -968 47 -186 130 -356 252 -513 64 -83 228 -235 319 -296 68
-45 217 -125 260 -139 5 -2 27 -71 49 -155 173 -665 444 -1184 813 -1555 387
-391 913 -629 1517 -688 63 -6 130 -13 148 -16 l32 -5 0 -72 0 -72 -37 -20
c-52 -28 -180 -157 -232 -234 -53 -78 -112 -195 -142 -282 l-23 -66 -110 -7
c-349 -20 -675 -182 -961 -477 -341 -352 -479 -667 -675 -1536 -37 -166 -71
-306 -75 -312 -3 -6 -22 -11 -42 -11 -56 0 -224 -37 -320 -71 -348 -123 -645
-385 -811 -715 -50 -99 -97 -232 -124 -349 -19 -82 -22 -132 -27 -555 l-6
-465 -40 -13 c-22 -8 -107 -31 -190 -52 -244 -62 -525 -100 -747 -100 l-107 0
-10 53 c-6 28 -28 156 -50 282 -65 371 -661 3757 -667 3788 l-6 27 -4004 0
c-2373 0 -4004 -4 -4004 -9 0 -5 38 -224 84 -488 108 -609 684 -3878 771
-4370 63 -364 65 -377 65 -547 l0 -175 -65 -52 -64 -52 20 -28 c11 -16 24 -31
29 -34 6 -4 10 -10 10 -16 0 -5 -657 -9 -1734 -9 -1452 0 -1735 -2 -1745 -14
-8 -9 -10 -143 -9 -477 l3 -464 1330 -3 c731 -1 1332 -5 1337 -10 4 -4 167
-446 362 -982 l356 -975 -677 -1860 c-373 -1023 -995 -2733 -1383 -3800 l-706
-1940 -3529 -5 c-3334 -5 -3534 -6 -3595 -23 -96 -26 -236 -98 -311 -160 -81
-68 -150 -158 -200 -262 -51 -105 -69 -179 -76 -300 -21 -381 241 -721 616
-800 64 -13 2273 -15 20311 -15 17831 0 20247 2 20309 15 287 60 516 277 593
564 15 56 21 107 21 196 1 147 -17 226 -78 350 -115 232 -334 389 -591 425
-51 7 -1005 10 -2970 10 l-2895 0 40 53 c51 68 106 169 131 243 51 146 50 107
50 1440 l0 1246 -977 5 c-538 3 -1101 2 -1251 -2 l-273 -7 3 -1262 3 -1261 23
-80 c29 -100 98 -243 151 -313 23 -29 41 -55 41 -57 0 -3 -168 -4 -372 -3
l-373 3 -591 1625 c-325 894 -787 2165 -1028 2825 -369 1014 -434 1202 -422
1211 13 9 8 26 -32 117 -26 59 -52 107 -58 107 -5 0 -151 386 -322 858 l-312
857 299 820 c164 451 325 892 357 980 l59 160 1945 5 1945 5 3 464 c1 334 -1
468 -9 477 -10 12 -301 14 -1795 14 -981 0 -1784 1 -1784 3 0 1 7 20 15 42 8
24 14 79 15 137 l0 96 193 4 192 3 55 31 c61 34 113 100 130 165 7 25 10 270
8 726 l-3 688 -31 55 c-33 60 -99 112 -162 130 -20 5 -114 10 -209 10 l-171 0
-4 148 c-3 145 -4 150 -33 197 -20 32 -45 56 -74 72 l-44 23 -759 0 c-662 0
-763 -2 -796 -15 -49 -21 -81 -52 -103 -100 -18 -38 -19 -93 -19 -1193 0 -984
2 -1158 14 -1187 l15 -35 -474 0 -474 0 -4 1363 -3 1362 -26 105 c-73 292
-191 505 -392 705 -202 202 -455 341 -718 395 -67 13 -59 -13 -83 260 -48 549
-159 1024 -299 1275 -87 155 -264 357 -421 480 -310 244 -721 397 -1174 437
l-144 13 -18 52 c-26 78 -83 181 -137 247 -52 64 -167 155 -253 200 l-56 30
-9 122 -9 123 119 42 c957 334 1628 1132 1920 2284 24 94 52 214 62 268 16 91
20 98 38 92 99 -28 141 -35 211 -35 170 0 303 57 426 180 252 253 252 659 0
910 -80 79 -155 125 -254 156 -31 10 -56 20 -55 23 2 3 40 98 85 211 214 539
349 1022 409 1465 24 178 25 560 1 695 -49 280 -141 481 -297 644 -183 192
-407 293 -740 335 l-134 17 4 50 c31 324 -82 633 -356 973 -313 389 -734 635
-1264 740 -211 42 -361 54 -655 55 -384 0 -626 -24 -1348 -134 -563 -85 -695
-101 -932 -107 -282 -8 -422 11 -563 77 -232 108 -395 299 -467 544 -77 267
-49 584 90 1026 25 78 45 150 45 160 0 26 -40 68 -70 75 -18 4 -39 -3 -74 -26z
m4484 -4550 c33 -108 108 -276 271 -599 231 -461 424 -799 647 -1131 153 -230
302 -498 336 -607 l7 -22 -210 0 -210 0 -11 58 c-93 449 -427 844 -856 1012
-663 260 -1411 -20 -1744 -651 -59 -112 -113 -270 -136 -396 l-17 -93 -291 0
-292 0 -17 94 c-87 494 -449 910 -930 1071 -153 51 -267 69 -447 68 -176 -1
-300 -21 -447 -73 -48 -17 -95 -34 -103 -36 -13 -4 -15 6 -12 68 11 264 55
591 108 805 47 194 147 463 172 463 5 0 25 -7 45 -15 19 -8 105 -35 192 -60
831 -240 1842 -298 2803 -160 339 49 715 139 987 235 60 21 115 39 122 39 6 1
21 -31 33 -70z m-3714 -1360 c422 -59 806 -361 968 -762 295 -731 -161 -1547
-939 -1684 -105 -18 -299 -20 -400 -4 -243 40 -478 158 -659 331 -254 243
-386 549 -386 896 0 597 434 1113 1025 1218 97 17 286 20 391 5z m3385 -5
c257 -44 477 -159 665 -348 148 -148 242 -297 304 -484 81 -244 81 -532 -1
-776 -126 -376 -419 -667 -794 -789 -163 -53 -321 -71 -489 -56 -532 50 -963
422 -1096 945 -32 123 -39 371 -16 498 76 401 327 731 689 907 96 47 221 86
327 104 108 19 300 18 411 -1z m2194 -1088 c178 -88 283 -295 255 -501 -14
-103 -74 -218 -148 -286 -132 -122 -298 -158 -459 -97 -50 18 -54 22 -49 46 7
34 33 253 41 352 4 41 14 93 24 115 10 22 56 125 102 228 l84 188 39 -5 c22
-2 71 -20 111 -40z m-362 -41 c-3 -9 -8 -14 -10 -11 -3 3 -2 9 2 15 9 16 15
13 8 -4z m-159 -83 c20 -73 20 -178 1 -392 -137 -1512 -797 -2559 -1877 -2980
-732 -285 -1683 -261 -2333 60 -240 119 -403 238 -595 436 -130 134 -231 264
-327 422 -75 121 -202 379 -258 522 -70 179 -186 553 -174 564 2 2 33 -2 69
-10 167 -36 416 -27 605 21 244 62 507 218 669 397 l56 61 -6 -59 c-23 -218
123 -410 338 -446 85 -14 142 -2 146 31 5 35 -9 43 -89 45 -91 3 -150 27 -218
91 -74 69 -96 127 -95 250 1 116 26 208 100 362 58 120 99 246 120 366 l18 97
291 0 291 0 18 -97 c170 -914 1166 -1409 1996 -993 451 227 739 673 767 1189
l6 121 232 0 232 0 17 -58z m-2164 -3873 c11 -129 25 -299 32 -379 l11 -146
-27 -51 c-63 -115 -182 -227 -333 -313 -105 -60 -239 -113 -258 -103 -25 14
-95 113 -130 183 -93 185 -164 556 -165 858 l0 92 33 0 c211 1 567 39 735 79
42 10 78 17 79 16 1 -1 12 -107 23 -236z m229 -189 c109 -79 183 -183 227
-317 27 -83 29 -97 29 -258 0 -186 -16 -283 -77 -475 -55 -171 -197 -501 -215
-499 -4 0 -25 35 -46 77 -86 175 -289 410 -445 516 l-72 50 90 47 c216 114
364 256 446 426 l36 75 -11 142 c-6 77 -14 165 -17 194 -4 31 -2 52 3 52 6 0
29 -14 52 -30z m-1239 -21 c0 -54 30 -239 57 -354 39 -169 100 -321 171 -427
13 -21 23 -39 21 -41 -2 -1 -30 -15 -62 -32 -31 -16 -88 -52 -125 -79 -70 -53
-273 -249 -360 -350 -29 -33 -54 -58 -56 -55 -3 2 -10 88 -17 190 -28 428 41
765 209 1017 40 62 134 162 151 162 6 0 11 -14 11 -31z m-5459 -1139 c28 -157
445 -2523 720 -4085 82 -467 152 -865 155 -882 l6 -33 -3925 0 -3925 0 -6 28
c-3 15 -206 1166 -451 2557 -245 1392 -448 2540 -450 2553 l-5 22 3927 -2
3927 -3 27 -155z m3169 -1671 c0 -23 -93 -432 -142 -624 -151 -598 -325 -964
-542 -1147 -38 -32 -116 -82 -175 -112 -112 -57 -304 -141 -347 -152 l-25 -6
3 453 c4 453 4 454 31 555 124 477 465 841 922 983 79 25 202 52 268 60 4 1 7
-4 7 -10z m6150 -51 c206 -65 392 -179 550 -338 193 -192 309 -403 377 -685
16 -64 18 -190 20 -1432 l3 -1363 -620 0 -619 0 4 28 c11 61 57 626 80 962 41
626 55 983 62 1610 5 510 -6 1130 -24 1228 l-5 33 38 -7 c22 -3 82 -20 134
-36z m4115 -2633 l0 -660 -167 -3 -168 -2 0 665 0 665 168 -2 167 -3 0 -660z
m-9505 315 c132 -23 322 -75 418 -112 56 -23 57 -24 109 -123 104 -197 186
-441 213 -630 23 -163 5 -352 -47 -482 -14 -37 -27 -87 -27 -110 l0 -43 -1417
0 -1416 0 -11 39 c-45 148 47 452 216 711 255 394 622 635 1120 736 188 38
249 43 492 40 178 -3 251 -8 350 -26z m-2432 -957 c-98 -2 -258 -2 -355 0 -98
1 -18 2 177 2 195 0 275 -1 178 -2z m144 -88 c3 -3 -3 -31 -14 -63 -32 -95
-54 -272 -42 -332 8 -37 8 -53 0 -56 -6 -2 -1934 -3 -4284 -2 l-4273 3 0 223
c0 122 1 224 1 227 0 7 8605 6 8612 0z m10543 -545 c407 0 1562 2 2568 5
l1827 5 0 -400 0 -400 -13555 0 -13555 0 0 400 0 400 10988 -5 c6043 -3 11320
-5 11727 -5z m-18695 -877 c0 -8 -350 -973 -359 -991 -5 -9 -270 699 -369 986
-3 9 73 12 362 12 201 0 366 -3 366 -7z m608 -10 c-5 -18 -1078 -2968 -2793
-7678 -521 -1430 -959 -2634 -974 -2675 l-28 -75 -261 -3 c-158 -1 -262 1
-262 7 0 5 50 146 111 313 61 167 531 1460 1046 2873 1680 4618 2607 7161
2632 7228 l11 27 261 0 c244 0 261 -1 257 -17z m7757 -366 l0 -379 -330 1
c-1230 5 -2184 -149 -2725 -440 -285 -154 -499 -372 -577 -590 -55 -150 -58
-180 -58 -489 1 -282 6 -361 46 -678 11 -90 19 -167 17 -172 -2 -5 -52 18
-112 50 -60 33 -112 60 -115 60 -4 0 -32 -46 -62 -102 l-57 -103 37 -20 c20
-12 80 -44 133 -73 l97 -52 42 80 c24 44 45 80 49 80 3 0 13 -53 23 -117 135
-882 497 -2385 931 -3868 161 -549 193 -648 216 -667 18 -15 41 -18 121 -18
54 0 99 -2 99 -5 0 -2 38 -169 85 -371 46 -202 84 -369 82 -370 -4 -3 -183
-13 -342 -19 -88 -3 -169 -8 -181 -10 -16 -3 -34 12 -76 63 -31 37 -81 87
-111 110 -51 39 -64 44 -168 62 -154 27 -383 56 -559 72 -209 18 -681 15 -854
-6 -490 -58 -810 -191 -1061 -441 -143 -141 -234 -298 -271 -464 -11 -47 -19
-69 -24 -60 -5 8 -181 491 -393 1074 -806 2218 -2277 6257 -2282 6265 -4 6
438 1236 565 1574 l22 58 89 -88 89 -89 85 85 85 85 -102 102 c-57 57 -107
103 -113 103 -6 0 -26 -16 -45 -35 -18 -19 -35 -33 -37 -32 -2 3 30 97 66 190
l11 27 3832 -2 3833 -3 0 -378z m1313 366 c-3 -10 -56 -197 -118 -415 l-114
-398 -35 5 c-80 11 -432 35 -688 47 l-273 12 0 383 0 383 616 0 c582 0 616 -1
612 -17z m7102 -1601 c0 -1439 -2 -1629 -16 -1713 -73 -430 -347 -800 -739
-996 -106 -54 -200 -86 -326 -115 l-104 -23 -2614 0 -2614 0 -53 172 c-177
573 -269 946 -293 1179 -12 113 -6 169 18 180 9 5 162 9 341 10 293 1 474 -5
1515 -50 1270 -55 2140 -12 2495 125 154 59 355 198 528 364 290 278 478 612
583 1035 107 434 115 891 23 1413 l-7 37 632 0 631 0 0 -1618z m731 632 l357
-980 -293 -805 c-161 -442 -366 -1006 -456 -1253 l-164 -449 -137 -36 c-75
-20 -139 -39 -143 -42 -5 -5 42 -216 50 -227 2 -2 29 4 61 12 32 8 60 13 62
11 2 -2 -146 -415 -330 -919 l-333 -916 -3 837 c-1 460 -1 838 1 840 2 2 57
15 123 30 65 15 120 28 122 29 2 1 -48 226 -52 231 -1 1 -39 -6 -85 -17 -45
-11 -89 -20 -97 -20 -12 0 -14 28 -14 163 l0 162 78 56 c322 235 529 572 586
962 14 91 16 311 16 1704 0 880 3 1603 7 1607 4 3 70 5 147 4 l140 -3 357
-981z m1067 974 c-59 -172 -362 -997 -365 -994 -6 5 -363 988 -363 998 0 4
165 8 366 8 289 0 365 -3 362 -12z m612 8 c0 -5 -936 -2578 -2778 -7641
l-1020 -2800 -262 -3 -262 -2 4 22 c3 13 753 2075 1666 4583 2179 5985 2121
5825 2128 5836 5 9 524 13 524 5z m-18900 -3051 c351 -967 1226 -3370 1945
-5345 230 -630 430 -1181 445 -1225 16 -44 89 -245 163 -447 l134 -368 -257 0
-257 0 -16 43 c-9 23 -397 1088 -862 2367 -466 1279 -1083 2975 -1372 3770
-290 795 -526 1450 -526 1456 0 8 211 597 246 684 7 18 11 21 14 10 3 -8 157
-433 343 -945z m18313 730 c41 -115 404 -1112 805 -2215 402 -1103 1007 -2765
1345 -3695 339 -929 658 -1806 710 -1947 l94 -258 -258 0 -258 0 -21 58 c-12
31 -93 253 -180 492 -187 517 -1112 3055 -1962 5390 -336 921 -611 1682 -612
1690 -2 22 248 710 255 702 3 -4 40 -101 82 -217z m-18220 -2645 c405 -1114
948 -2604 1206 -3312 l468 -1288 -2418 0 c-1445 0 -2419 4 -2419 9 0 5 102
287 226 628 124 340 654 1797 1179 3238 1121 3081 1006 2768 1015 2758 4 -4
338 -919 743 -2033z m18017 1540 c99 -271 178 -496 175 -500 -2 -4 -44 -22
-92 -40 -48 -18 -92 -37 -97 -41 -8 -7 20 -97 60 -196 l13 -31 102 40 c55 22
102 38 104 36 2 -2 353 -964 780 -2138 428 -1174 869 -2387 981 -2695 112
-308 204 -563 204 -567 0 -5 -1001 -8 -2225 -8 l-2225 0 0 534 0 534 25 65
c19 52 1925 5288 2000 5496 3 8 8 12 10 9 3 -3 86 -227 185 -498z m-10975 275
c87 -252 313 -786 490 -1162 30 -64 55 -117 55 -119 0 -1 -34 8 -75 21 -41 12
-75 22 -76 21 -13 -30 -65 -223 -60 -228 3 -3 68 -24 143 -46 l136 -39 14 34
13 34 145 -303 c296 -622 961 -1944 1446 -2876 l184 -353 -2 -488 -3 -489 -65
40 -65 40 -350 -5 c-594 -9 -971 -65 -1407 -208 -37 -12 -38 -12 -90 38 -29
27 -97 82 -150 122 -54 39 -98 75 -98 80 0 4 -63 263 -140 576 -77 312 -140
572 -140 576 0 5 43 9 95 9 88 0 98 2 120 25 14 13 25 30 25 37 0 8 -83 763
-185 1678 -102 915 -185 1670 -185 1676 0 7 45 -3 122 -27 67 -22 127 -38 133
-35 10 3 80 215 73 220 -11 8 -278 89 -282 85 -2 -2 -15 -38 -28 -79 -32 -93
-24 -134 -89 455 -53 476 -55 529 -24 632 19 64 65 132 110 162 36 24 118 52
144 48 8 -1 35 -64 66 -152z m8665 -2472 l-5 -1238 -187 -505 -187 -505 -1
1678 c0 1676 0 1677 20 1677 30 0 225 66 295 100 33 15 62 29 65 29 3 1 3
-556 0 -1236z m-460 967 l0 -118 -27 -6 c-16 -3 -45 -8 -66 -12 -33 -6 -38
-10 -34 -28 3 -11 13 -65 22 -118 l17 -97 32 6 c17 3 36 6 41 7 7 1 11 -521
13 -1544 l2 -1545 -49 -135 c-27 -74 -134 -367 -236 -650 -103 -283 -191 -522
-196 -530 -5 -8 -7 957 -6 2155 l2 2169 44 8 c24 4 46 9 48 12 3 2 -4 55 -14
118 l-18 113 -32 -3 -33 -4 0 156 0 156 183 1 c100 1 207 4 237 8 30 4 58 5
63 3 4 -2 7 -57 7 -122z m-4750 -109 l0 -220 -68 6 -69 6 -11 -113 c-7 -63
-10 -115 -8 -117 2 -3 38 -7 80 -10 l76 -6 0 -360 c0 -198 -2 -358 -5 -355
-16 15 -475 1344 -475 1374 0 12 41 14 240 14 l240 0 0 -219z m470 -1103 l-1
-1323 -25 65 c-14 36 -101 263 -192 505 l-167 440 -3 818 -2 817 195 0 195 0
0 -1322z m3240 1128 l0 -194 -32 -5 c-18 -3 -78 -11 -133 -17 -55 -7 -101 -13
-103 -15 -9 -9 22 -235 32 -235 6 1 61 7 121 14 61 8 111 13 112 12 2 -1 4
-989 5 -2194 l3 -2192 -1208 0 -1207 0 -68 44 c-37 25 -112 69 -167 98 l-99
53 -208 505 c-185 450 -207 510 -205 555 l2 50 100 8 c124 10 143 15 168 50
l21 27 -21 58 c-12 31 -78 201 -147 377 l-126 320 3 1075 2 1075 91 -4 91 -3
6 47 c4 26 7 81 7 121 l0 74 -62 0 c-35 0 -80 3 -100 6 l-38 7 0 238 0 239
1580 0 1580 0 0 -194z m470 -2276 l0 -2470 -195 0 -195 0 0 2470 0 2470 195 0
195 0 0 -2470z m-7741 -1482 c85 -343 158 -632 163 -643 5 -11 50 -47 99 -80
49 -33 108 -76 131 -96 l43 -36 -71 -36 c-242 -122 -477 -346 -585 -560 -28
-55 -31 -58 -62 -53 -18 3 -77 10 -132 16 -238 26 -1106 139 -1113 145 -2 1
15 56 37 122 103 310 118 602 42 830 l-27 82 41 5 c22 3 99 8 170 11 343 14
375 17 401 37 16 13 24 29 24 51 0 18 -41 209 -90 425 -50 216 -90 395 -90
397 0 3 195 5 433 5 l432 0 154 -622z m4152 -368 c132 -322 244 -595 250 -607
7 -13 56 -43 123 -76 282 -139 428 -285 472 -473 33 -143 -24 -234 -181 -293
-115 -43 -265 -61 -670 -81 -205 -10 -1305 -33 -1311 -28 -1 2 6 45 17 96 68
335 36 671 -86 889 -14 25 -24 48 -22 50 2 2 129 28 283 59 153 31 289 62 300
69 47 30 43 44 -131 492 -91 234 -164 427 -163 428 6 6 786 63 832 61 l48 -1
239 -585z m-1396 503 c84 4 115 2 115 -6 0 -7 27 -81 60 -165 l60 -153 0 -243
0 -243 -177 -35 c-137 -27 -181 -32 -191 -24 -10 10 -13 112 -15 453 -2 418
-1 441 15 426 15 -13 37 -15 133 -10z m-5345 -140 c0 -5 -154 -8 -343 -8 -188
0 -317 3 -287 6 87 8 630 10 630 2z m118 -10 c-15 -2 -42 -2 -60 0 -18 2 -6 4
27 4 33 0 48 -2 33 -4z m-933 -24 c-66 -10 -124 -17 -130 -14 -5 2 -3 4 5 5 8
1 51 7 95 15 44 7 96 13 115 13 19 0 -19 -9 -85 -19z m1053 14 c-10 -2 -28 -2
-40 0 -13 2 -5 4 17 4 22 1 32 -1 23 -4z m105 -10 c-13 -2 -35 -2 -50 0 -16 2
-5 4 22 4 28 0 40 -2 28 -4z m91 -11 c2 -4 -11 -6 -30 -4 -19 2 -34 6 -34 8 0
8 59 4 64 -4z m106 -11 c34 -6 37 -9 15 -9 -16 -1 -48 3 -70 7 -53 11 -5 12
55 2z m-1503 -7 c-3 -3 -12 -4 -19 -1 -8 3 -5 6 6 6 11 1 17 -2 13 -5z m-97
-24 c-36 -11 -69 -19 -75 -19 -17 2 99 38 120 38 11 0 -9 -9 -45 -19z m1693
13 c-7 -2 -21 -2 -30 0 -10 3 -4 5 12 5 17 0 24 -2 18 -5z m147 -42 c72 -57
175 -206 194 -281 4 -14 -8 7 -27 45 -41 84 -114 183 -166 224 -21 17 -60 35
-87 40 l-49 10 50 -4 c35 -4 60 -14 85 -34z m-1960 -6 c-46 -18 -64 -17 -25 0
17 8 37 14 45 14 8 0 -1 -7 -20 -14z m-165 -70 c-130 -64 -221 -130 -329 -240
-61 -61 -69 -68 -36 -27 49 60 143 143 231 202 60 41 214 120 233 120 6 0 -38
-25 -99 -55z m12707 -567 l-2 -498 -181 0 c-99 0 -179 4 -177 9 2 4 84 229
182 500 99 270 180 490 180 488 1 -1 0 -226 -2 -499z m-5642 229 c23 -60 40
-110 38 -113 -3 -2 -26 -7 -51 -10 l-47 -7 0 129 c0 76 4 124 9 119 5 -6 28
-59 51 -118z m-4712 8 c0 -11 -6 3 -14 30 -7 28 -13 55 -13 60 2 17 27 -69 27
-90z m-2794 -51 c-20 -31 -45 -78 -56 -105 -12 -27 -23 -48 -25 -45 -11 11 95
206 112 206 3 0 -11 -25 -31 -56z m2803 -11 c-3 -10 -5 -4 -5 12 0 17 2 24 5
18 2 -7 2 -21 0 -30z m10 -180 c-2 -27 -3 -5 -3 47 0 52 1 74 3 48 2 -27 2
-69 0 -95z m3963 0 c64 -42 157 -137 183 -185 l18 -33 -23 30 c-44 58 -133
148 -178 179 l-45 31 -235 5 -235 6 230 2 230 2 55 -37z m-6866 -12 c-4 -17
-9 -30 -11 -27 -3 2 -2 19 2 36 9 41 17 33 9 -9z m6274 32 c-15 -2 -42 -2 -60
0 -18 2 -6 4 27 4 33 0 48 -2 33 -4z m69 1 c-3 -3 -12 -4 -19 -1 -8 3 -5 6 6
6 11 1 17 -2 13 -5z m-204 -11 c-18 -2 -48 -2 -65 0 -18 2 -4 4 32 4 36 0 50
-2 33 -4z m-120 -10 c-13 -2 -33 -2 -45 0 -13 2 -3 4 22 4 25 0 35 -2 23 -4z
m-105 -10 c-10 -2 -26 -2 -35 0 -10 3 -2 5 17 5 19 0 27 -2 18 -5z m-93 -13
c-50 -10 -164 -21 -150 -15 15 7 124 23 160 23 25 0 23 -2 -10 -8z m-172 -27
c-7 -2 -19 -2 -25 0 -7 3 -2 5 12 5 14 0 19 -2 13 -5z m-5666 -50 c-3 -10 -5
-2 -5 17 0 19 2 27 5 18 2 -10 2 -26 0 -35z m5568 32 c-27 -7 -59 -13 -70 -13
-11 0 3 6 30 13 28 7 59 13 70 13 11 0 -2 -6 -30 -13z m-2658 -42 c-3 -10 -5
-4 -5 12 0 17 2 24 5 18 2 -7 2 -21 0 -30z m2560 21 c-3 -3 -12 -4 -19 -1 -8
3 -5 6 6 6 11 1 17 -2 13 -5z m-82 -20 c-27 -7 -54 -13 -60 -13 -17 2 69 27
90 27 11 0 -2 -6 -30 -14z m-2495 -99 c-7 -36 -16 -65 -20 -65 -4 0 -1 23 6
52 8 29 14 61 14 72 0 11 3 17 6 13 4 -3 1 -36 -6 -72z m2360 60 c-19 -7 -42
-13 -50 -13 -8 0 1 6 20 13 19 7 42 13 50 13 8 0 -1 -6 -20 -13z m-5263 -32
c-3 -10 -5 -4 -5 12 0 17 2 24 5 18 2 -7 2 -21 0 -30z m5192 13 c-10 -9 -162
-66 -166 -62 -2 2 31 18 74 35 71 28 103 37 92 27z m-5176 -106 c4 -30 3 -38
-3 -25 -8 19 -14 83 -6 74 2 -2 6 -24 9 -49z m7107 10 c11 -21 20 -43 20 -47
0 -10 -34 45 -43 70 -12 31 2 18 23 -23z m-2200 -21 c-212 -116 -400 -292
-482 -452 -11 -22 -22 -36 -25 -33 -10 9 103 169 171 243 36 39 98 96 138 126
72 55 243 157 263 157 6 0 -24 -19 -65 -41z m-2051 -48 c-7 -23 -14 -39 -16
-37 -3 2 1 23 8 45 7 23 14 39 16 37 3 -2 -1 -23 -8 -45z m4301 -57 c11 -36
20 -74 19 -83 0 -9 -11 20 -24 64 -28 93 -26 85 -20 85 2 0 13 -30 25 -66z
m-6983 40 c-3 -3 -12 -4 -19 -1 -8 3 -5 6 6 6 11 1 17 -2 13 -5z m246 -41 c-7
-2 -19 -2 -25 0 -7 3 -2 5 12 5 14 0 19 -2 13 -5z m2391 -77 c-12 -33 -24 -50
-42 -57 -13 -5 -27 -7 -30 -5 -2 3 7 8 20 11 18 5 29 19 42 56 10 28 20 48 22
46 2 -2 -3 -25 -12 -51z m-1997 8 c-3 -3 -12 -4 -19 -1 -8 3 -5 6 6 6 11 1 17
-2 13 -5z m6370 -71 c-3 -10 -5 -4 -5 12 0 17 2 24 5 18 2 -7 2 -21 0 -30z
m-5904 20 c-7 -2 -21 -2 -30 0 -10 3 -4 5 12 5 17 0 24 -2 18 -5z m144 -19
c-3 -3 -12 -4 -19 -1 -8 3 -5 6 6 6 11 1 17 -2 13 -5z m130 -10 c-3 -3 -12 -4
-19 -1 -8 3 -5 6 6 6 11 1 17 -2 13 -5z m1070 0 c-3 -3 -12 -4 -19 -1 -8 3 -5
6 6 6 11 1 17 -2 13 -5z m-890 -10 c-3 -3 -12 -4 -19 -1 -8 3 -5 6 6 6 11 1
17 -2 13 -5z m60 0 c-3 -3 -12 -4 -19 -1 -8 3 -5 6 6 6 11 1 17 -2 13 -5z m86
-11 c-7 -2 -19 -2 -25 0 -7 3 -2 5 12 5 14 0 19 -2 13 -5z m420 0 c-7 -2 -19
-2 -25 0 -7 3 -2 5 12 5 14 0 19 -2 13 -5z m4894 -75 c-2 -18 -4 -6 -4 27 0
33 2 48 4 33 2 -15 2 -42 0 -60z m12 -65 c0 -25 -1 -26 -9 -8 -12 27 -12 35 0
35 6 0 10 -12 9 -27z m-8 -56 c-10 -9 -11 -8 -5 6 3 10 9 15 12 12 3 -3 0 -11
-7 -18z m0 -75 c-4 -67 -11 -66 -11 3 0 32 3 55 7 51 4 -4 6 -28 4 -54z
m-2832 -31 c-6 -18 -13 -30 -15 -28 -2 2 1 18 7 36 6 18 13 30 15 28 2 -2 -1
-18 -7 -36z m2818 -78 c-3 -10 -5 -2 -5 17 0 19 2 27 5 18 2 -10 2 -26 0 -35z
m-2840 15 c-3 -8 -6 -5 -6 6 -1 11 2 17 5 13 3 -3 4 -12 1 -19z m-16 -88 c-6
-44 -9 -53 -10 -29 -1 37 9 102 15 96 2 -1 -1 -32 -5 -67z m2232 -87 c-7 -2
-19 -2 -25 0 -7 3 -2 5 12 5 14 0 19 -2 13 -5z m-2235 -64 l-3 -44 -5 52 c-3
29 -1 48 3 44 5 -5 7 -28 5 -52z m2019 35 c-3 -3 -12 -4 -19 -1 -8 3 -5 6 6 6
11 1 17 -2 13 -5z m-44 -11 c-7 -2 -19 -2 -25 0 -7 3 -2 5 12 5 14 0 19 -2 13
-5z m-1966 -95 c-3 -8 -6 -5 -6 6 -1 11 2 17 5 13 3 -3 4 -12 1 -19z m22 -63
c0 -5 -4 -3 -9 5 -5 8 -9 22 -9 30 0 16 17 -16 18 -35z m848 29 c-3 -3 -12 -4
-19 -1 -8 3 -5 6 6 6 11 1 17 -2 13 -5z m-200 -20 c-3 -3 -12 -4 -19 -1 -8 3
-5 6 6 6 11 1 17 -2 13 -5z m-210 -10 c-3 -3 -12 -4 -19 -1 -8 3 -5 6 6 6 11
1 17 -2 13 -5z m56 -1 c-7 -2 -19 -2 -25 0 -7 3 -2 5 12 5 14 0 19 -2 13 -5z
m-205 -10 c-10 -2 -26 -2 -35 0 -10 3 -2 5 17 5 19 0 27 -2 18 -5z"/>
<path d="M30756 39070 c-241 -28 -524 -124 -570 -194 -40 -61 -28 -138 28
-181 44 -34 97 -33 177 4 294 133 659 146 1033 37 105 -30 148 -25 190 24 37
45 43 90 17 144 -25 51 -46 63 -176 101 -203 59 -506 87 -699 65z"/>
<path d="M28140 38944 c-214 -27 -477 -110 -543 -172 -55 -52 -56 -132 -1
-187 50 -50 87 -52 187 -11 115 48 234 81 344 96 120 17 399 8 514 -15 84 -17
87 -17 124 1 55 27 77 61 77 119 0 88 -47 123 -197 151 -87 16 -424 28 -505
18z"/>
<path d="M28149 37377 c-147 -99 -197 -427 -98 -639 64 -135 151 -180 243
-125 166 101 204 501 67 701 -58 84 -143 110 -212 63z"/>
<path d="M30889 37397 c-90 -61 -139 -175 -146 -345 -8 -162 16 -267 84 -365
35 -50 81 -77 133 -77 74 0 131 52 179 160 49 113 55 335 11 458 -40 113 -118
192 -190 192 -22 0 -51 -9 -71 -23z"/>
<path d="M30250 34576 c-808 -372 -809 -373 -782 -414 11 -17 126 -47 262 -68
163 -26 398 -15 552 24 381 98 689 374 799 714 25 78 20 102 -22 105 -14 1
-367 -157 -809 -361z m699 148 c-143 -284 -437 -489 -793 -550 -68 -12 -131
-15 -251 -11 -146 4 -293 22 -281 34 15 15 1362 628 1364 621 2 -5 -15 -47
-39 -94z"/>
<path d="M20655 30139 c-72 -4 -229 -33 -243 -44 -2 -1 6 -18 18 -37 81 -138
89 -331 19 -479 -23 -49 -27 -64 -17 -71 10 -7 9 -8 -2 -6 -8 2 -47 -29 -85
-68 -109 -111 -232 -164 -379 -164 -107 0 -198 25 -268 72 l-26 18 -11 -33
c-21 -58 -41 -210 -41 -308 0 -308 123 -596 348 -811 139 -133 297 -222 488
-275 92 -26 112 -28 289 -28 177 0 197 2 289 28 188 52 347 141 484 271 462
436 470 1161 18 1612 -233 234 -537 345 -881 323z m-35 -669 c8 -5 11 -10 5
-10 -5 0 -17 5 -25 10 -8 5 -10 10 -5 10 6 0 17 -5 25 -10z m730 -180 c8 -5
11 -10 5 -10 -5 0 -17 5 -25 10 -8 5 -10 10 -5 10 6 0 17 -5 25 -10z m447 -96
c-3 -3 -12 -4 -19 -1 -8 3 -5 6 6 6 11 1 17 -2 13 -5z"/>
<path d="M19071 24593 l-81 -88 107 -100 c58 -55 109 -100 113 -100 3 0 40 38
83 84 59 66 74 88 65 98 -6 7 -55 54 -108 103 l-98 90 -81 -87z"/>
<path d="M19516 24187 l-80 -90 26 -21 c14 -12 66 -56 116 -98 l89 -77 78 91
c64 75 75 92 64 103 -8 7 -50 43 -94 80 -44 38 -89 76 -100 86 -19 17 -22 15
-99 -74z"/>
<path d="M19976 23799 l-75 -92 81 -66 c44 -36 98 -79 119 -94 l38 -28 68 86
c37 48 69 92 70 98 2 10 -69 69 -202 170 l-24 18 -75 -92z"/>
<path d="M20503 23498 c-21 -25 -105 -135 -117 -155 -4 -8 33 -42 108 -98 64
-47 120 -85 125 -85 7 0 111 136 134 176 4 7 -39 46 -108 98 -63 47 -116 86
-118 86 -2 0 -13 -10 -24 -22z"/>
<path d="M20936 23074 c-37 -53 -64 -100 -59 -104 23 -20 232 -160 239 -160 9
0 129 178 129 191 0 6 -230 169 -239 169 -1 0 -32 -43 -70 -96z"/>
<path d="M21436 22738 c-37 -55 -65 -102 -64 -103 2 -1 58 -37 126 -80 141
-89 122 -92 201 34 43 69 50 86 39 96 -7 7 -63 44 -125 83 l-111 71 -66 -101z"/>
<path d="M21948 22421 c-32 -55 -58 -102 -58 -104 0 -3 24 -18 53 -35 28 -16
86 -50 128 -75 l76 -45 57 97 c31 54 56 102 56 107 0 8 -239 154 -251 154 -2
0 -30 -45 -61 -99z"/>
<path d="M35965 21075 c-66 -24 -123 -45 -127 -47 -5 -2 20 -83 67 -215 3 -9
42 0 137 33 73 26 136 50 141 53 4 4 -9 55 -29 114 -27 78 -42 107 -53 106 -9
-1 -70 -21 -136 -44z"/>
<path d="M31875 20226 l-130 -11 3 -60 c1 -33 5 -86 8 -119 l6 -59 102 7 c55
4 123 9 149 13 l49 6 -6 71 c-14 150 -17 166 -34 164 -10 0 -75 -6 -147 -12z"/>
<path d="M31290 20189 c-74 -3 -136 -7 -137 -8 -7 -3 -2 -230 5 -233 10 -5
291 7 295 13 8 10 -9 233 -18 234 -5 1 -71 -2 -145 -6z"/>
<path d="M29948 20064 c-2 -64 -1 -118 1 -120 2 -2 71 -4 153 -4 l148 0 0 120
0 120 -149 0 -150 0 -3 -116z"/>
<path d="M30688 20173 l-138 -4 0 -119 0 -120 104 0 c57 0 124 3 150 6 l46 7
0 118 c0 90 -3 118 -12 117 -7 -1 -75 -4 -150 -5z"/>
<path d="M37113 41119 c-130 -25 -234 -117 -276 -243 -16 -46 -17 -438 -17
-5263 l0 -5213 7645 0 7645 0 0 5198 c0 4649 -2 5204 -15 5257 -30 113 -107
200 -223 250 -47 20 -65 20 -7382 21 -4034 1 -7354 -2 -7377 -7z m407 -199
c46 -13 99 -68 110 -114 25 -110 -84 -217 -190 -186 -46 13 -98 66 -111 112
-24 91 48 189 146 197 6 1 26 -4 45 -9z m511 -1 c149 -50 145 -257 -6 -298
-111 -30 -219 79 -186 188 14 48 61 97 104 110 44 13 49 13 88 0z m544 -18
c46 -26 75 -76 75 -130 0 -136 -159 -205 -258 -113 -64 60 -64 164 0 224 53
49 118 56 183 19z m13375 -5376 l0 -4965 -7490 0 -7490 0 0 4958 c0 2727 3
4962 7 4965 3 4 3374 7 7490 7 l7483 0 0 -4965z"/>
<path d="M38467 39773 c-3 -5 47 -7 111 -5 208 4 231 8 60 10 -92 1 -169 -1
-171 -5z"/>
<path d="M38970 35535 l0 -4246 -254 3 c-140 2 -252 0 -249 -4 2 -5 658 -7
1456 -6 799 1 1422 3 1385 5 l-68 4 0 2334 0 2335 -535 0 -535 0 0 -2335 0
-2335 -60 0 -60 0 0 4245 0 4245 -540 0 -540 0 0 -4245z m2260 -1915 l0 -2330
-525 0 -525 0 0 2330 0 2330 525 0 525 0 0 -2330z"/>
<path d="M38470 38078 c0 -5 75 -7 168 -6 169 2 149 6 -56 10 -61 2 -112 0
-112 -4z"/>
<path d="M49110 34135 l0 -2845 -60 0 -60 0 0 1865 0 1865 -535 0 -535 0 0
-1865 0 -1865 -517 -3 c-285 -1 253 -3 1196 -5 943 -1 1712 0 1709 3 -3 3
-271 5 -597 5 l-591 0 0 2840 0 2840 530 -2 c292 -2 530 0 530 5 0 4 -241 7
-535 7 l-535 0 0 -2845z"/>
<path d="M43450 33625 l0 -2335 -512 0 c-281 0 -513 -2 -516 -5 -3 -3 766 -4
1709 -3 943 1 1684 3 1647 5 l-68 4 0 929 0 930 -537 -2 -538 -3 533 -2 532
-3 0 -925 0 -925 -590 0 -590 1 0 2334 0 2335 -535 0 -535 0 0 -2335z"/>
<path d="M38568 32983 c46 -2 118 -2 160 0 42 1 5 3 -83 3 -88 0 -123 -2 -77
-3z"/>
<path d="M51882 31393 l-2 -103 -277 -3 -278 -2 278 -3 c223 -2 279 1 283 11
3 8 3 56 1 108 l-3 94 -2 -102z"/>
<path d="M41668 31283 c139 -2 364 -2 500 0 136 1 22 2 -253 2 -275 0 -386 -1
-247 -2z"/>
<path d="M46123 31283 c142 -2 372 -2 510 0 139 1 23 2 -258 2 -280 0 -394 -1
-252 -2z"/>
<path d="M50568 31283 c138 -2 366 -2 505 0 138 1 25 2 -253 2 -278 0 -391 -1
-252 -2z"/>
<path d="M13727 36810 c-3 -80 -3 -148 0 -152 2 -5 56 -8 119 -8 l114 0 0 128
c0 70 3 137 6 149 6 21 4 22 -114 25 l-119 3 -6 -145z"/>
<path d="M13730 36216 c0 -74 3 -141 6 -150 7 -18 82 -21 182 -10 l52 7 0 143
0 144 -120 0 -120 0 0 -134z"/>
<path d="M13939 35756 c-2 -3 -44 -6 -93 -7 -58 -1 -89 -6 -92 -14 -5 -12 13
-286 18 -290 4 -2 232 15 233 18 1 1 -3 67 -9 147 -10 134 -13 145 -31 148
-12 2 -23 1 -26 -2z"/>
<path d="M13881 35149 c-47 -5 -85 -10 -86 -12 -2 -2 26 -291 29 -294 4 -4
222 20 228 26 4 3 1 67 -7 141 -8 74 -15 138 -15 143 0 8 -35 7 -149 -4z"/>
<path d="M13970 34553 c-57 -7 -106 -15 -108 -17 -4 -5 35 -286 40 -292 3 -2
55 4 116 13 l112 17 -1 30 c-1 64 -34 259 -44 261 -6 2 -57 -4 -115 -12z"/>
<path d="M14061 33959 c-57 -10 -105 -20 -108 -23 -5 -4 32 -241 43 -277 4
-15 15 -14 117 4 61 11 114 21 115 23 4 2 -30 213 -43 272 -3 12 -9 21 -13 21
-4 -1 -54 -10 -111 -20z"/>
<path d="M14165 33367 c-55 -11 -102 -22 -104 -24 -6 -4 50 -276 58 -286 7 -7
217 36 227 46 3 2 -4 42 -15 88 -10 46 -24 110 -31 142 -6 32 -17 57 -23 56
-7 -1 -57 -10 -112 -22z"/>
<path d="M14301 32781 c-58 -14 -106 -31 -108 -37 -4 -11 61 -271 69 -279 4
-5 215 49 222 56 7 6 -65 289 -73 288 -3 -1 -53 -13 -110 -28z"/>
<path d="M14450 32198 c-58 -17 -106 -31 -108 -33 -4 -4 75 -276 82 -282 4 -4
216 54 224 62 1 1 -16 64 -38 140 -22 76 -40 140 -40 142 0 5 -7 3 -120 -29z"/>
<path d="M14631 31624 c-57 -19 -106 -36 -109 -39 -5 -5 50 -195 73 -252 l14
-32 108 36 c59 20 110 37 112 39 3 3 -89 285 -92 283 -1 -1 -49 -16 -106 -35z"/>
<path d="M14820 31054 c-52 -20 -98 -39 -103 -43 -6 -6 84 -266 96 -278 4 -3
207 74 215 81 8 8 -92 276 -103 275 -5 0 -53 -16 -105 -35z"/>
<path d="M15030 30490 c-52 -21 -96 -43 -98 -49 -3 -10 94 -251 106 -263 4 -3
55 14 113 38 l107 45 -54 131 c-30 71 -54 132 -54 134 0 10 -32 0 -120 -36z"/>
<path d="M45823 30243 c-4 -10 -30 -71 -59 -136 l-53 -119 94 -43 c52 -24 102
-45 111 -47 14 -2 30 27 76 131 32 74 57 136 55 138 -4 4 -209 93 -214 93 -2
0 -7 -8 -10 -17z"/>
<path d="M15270 29940 c-79 -35 -104 -51 -102 -64 3 -15 108 -246 116 -254 2
-2 52 19 110 46 l105 50 -60 134 c-33 73 -61 134 -62 134 -1 1 -49 -20 -107
-46z"/>
<path d="M45522 29578 c-34 -72 -61 -132 -60 -133 10 -9 211 -106 213 -103 9
10 127 269 124 272 -8 6 -202 96 -208 96 -4 0 -35 -59 -69 -132z"/>
<path d="M15525 29398 c-55 -28 -102 -52 -105 -55 -6 -6 123 -263 132 -263 9
0 173 82 196 98 11 7 -1 38 -52 141 -37 72 -67 131 -69 130 -1 0 -47 -23 -102
-51z"/>
<path d="M45277 29088 c-76 -141 -89 -170 -80 -179 5 -5 51 -32 103 -59 86
-46 95 -49 105 -33 5 10 37 70 71 133 l61 116 -98 52 c-54 29 -103 52 -108 52
-5 0 -29 -37 -54 -82z"/>
<path d="M15792 28862 l-102 -55 49 -91 c27 -50 60 -110 73 -133 l24 -41 94
54 c52 30 99 55 104 57 9 3 -114 241 -132 258 -4 3 -53 -19 -110 -49z"/>
<path d="M44967 28521 l-75 -130 102 -60 c92 -55 102 -58 114 -43 18 23 143
244 140 247 -2 1 -30 16 -63 35 -33 18 -79 43 -101 57 l-42 24 -75 -130z"/>
<path d="M16088 28341 c-54 -31 -98 -60 -98 -65 0 -8 122 -216 142 -243 7 -8
37 5 109 49 55 33 99 63 97 67 -10 22 -141 242 -147 245 -3 1 -50 -22 -103
-53z"/>
<path d="M44658 28004 l-76 -124 66 -43 c37 -24 83 -52 102 -64 l35 -22 78
126 c42 69 75 128 72 132 -5 9 -189 121 -196 120 -2 0 -38 -56 -81 -125z"/>
<path d="M16410 27834 c-47 -31 -91 -59 -99 -63 -10 -6 6 -38 69 -135 51 -79
86 -123 93 -119 86 50 186 126 180 136 -28 47 -153 237 -155 236 -2 0 -41 -25
-88 -55z"/>
<path d="M44336 27505 l-84 -125 99 -67 c54 -36 100 -65 102 -62 8 9 154 225
160 235 4 7 -34 38 -93 77 l-99 67 -85 -125z"/>
<path d="M16727 27324 l-96 -67 70 -101 c38 -55 78 -111 87 -124 l17 -22 45
32 c25 18 68 49 97 70 l52 38 -76 107 c-41 60 -77 114 -80 121 -3 6 -8 12 -12
12 -4 0 -51 -30 -104 -66z"/>
<path d="M43991 27014 c-70 -98 -81 -118 -70 -129 8 -7 51 -41 96 -74 l82 -60
85 117 c47 64 85 122 85 127 0 10 -174 135 -187 135 -4 -1 -45 -53 -91 -116z"/>
<path d="M17082 26839 c-51 -37 -93 -72 -93 -76 0 -13 165 -232 175 -233 7 0
142 98 180 131 5 4 -31 61 -80 127 l-90 120 -92 -69z"/>
<path d="M43631 26536 l-90 -115 94 -75 94 -76 91 116 c49 64 90 119 90 123 0
7 -173 141 -182 141 -4 0 -47 -51 -97 -114z"/>
<path d="M43256 26075 l-96 -114 86 -73 c47 -40 89 -74 93 -76 4 -1 43 39 86
90 43 51 87 102 97 114 18 20 17 21 -76 97 l-93 76 -97 -114z"/>
<path d="M42863 25625 c-51 -57 -93 -107 -92 -112 2 -12 156 -153 168 -153 5
0 53 48 107 107 l97 108 -84 77 c-46 43 -88 77 -94 77 -5 0 -52 -47 -102 -104z"/>
<path d="M42452 25187 l-102 -102 85 -85 85 -85 108 108 107 109 -85 79 c-46
43 -87 79 -90 79 -3 0 -51 -46 -108 -103z"/>
<path d="M42031 24770 l-103 -98 20 -29 c11 -15 48 -55 81 -87 l60 -59 105 98
c58 53 106 100 106 102 0 8 -152 173 -159 173 -3 -1 -53 -45 -110 -100z"/>
<path d="M41588 24363 l-107 -96 66 -76 c37 -42 72 -82 79 -90 14 -15 9 -18
189 142 l50 44 -79 87 c-43 47 -81 86 -84 85 -4 0 -55 -43 -114 -96z"/>
<path d="M42095 24353 l-17 -28 23 22 c12 12 20 25 17 28 -3 3 -13 -7 -23 -22z"/>
<path d="M42018 24238 c-71 -107 -94 -145 -81 -133 18 17 144 208 140 212 -2
2 -29 -34 -59 -79z"/>
<path d="M42125 24290 c-4 -12 -5 -24 -2 -27 3 -2 8 5 12 17 4 12 5 24 2 27
-3 2 -8 -5 -12 -17z"/>
<path d="M42141 24254 c0 -11 3 -14 6 -6 3 7 2 16 -1 19 -3 4 -6 -2 -5 -13z"/>
<path d="M42061 24244 c0 -11 3 -14 6 -6 3 7 2 16 -1 19 -3 4 -6 -2 -5 -13z"/>
<path d="M42152 24215 c0 -11 4 -31 8 -45 6 -20 8 -21 8 -5 0 11 -4 31 -8 45
-6 20 -8 21 -8 5z"/>
<path d="M42042 24135 c0 -16 2 -22 5 -12 2 9 2 23 0 30 -3 6 -5 -1 -5 -18z"/>
<path d="M42171 24124 c0 -11 3 -14 6 -6 3 7 2 16 -1 19 -3 4 -6 -2 -5 -13z"/>
<path d="M42091 24104 c0 -11 3 -14 6 -6 3 7 2 16 -1 19 -3 4 -6 -2 -5 -13z"/>
<path d="M42181 24084 c0 -11 3 -14 6 -6 3 7 2 16 -1 19 -3 4 -6 -2 -5 -13z"/>
<path d="M41833 23948 c-110 -175 -105 -168 -99 -168 2 0 42 60 87 133 45 72
88 142 97 155 8 12 12 22 9 22 -3 0 -46 -64 -94 -142z"/>
<path d="M41180 24012 c-36 -31 -86 -73 -110 -93 l-44 -36 73 -92 c41 -50 76
-91 78 -91 2 0 56 43 119 95 l114 96 -77 89 c-42 50 -79 90 -82 89 -4 0 -35
-26 -71 -57z"/>
<path d="M42081 24044 c0 -11 3 -14 6 -6 3 7 2 16 -1 19 -3 4 -6 -2 -5 -13z"/>
<path d="M42192 24040 c0 -14 2 -19 5 -12 2 6 2 18 0 25 -3 6 -5 1 -5 -13z"/>
<path d="M42022 24020 c0 -14 2 -19 5 -12 2 6 2 18 0 25 -3 6 -5 1 -5 -13z"/>
<path d="M42201 23994 c0 -11 3 -14 6 -6 3 7 2 16 -1 19 -3 4 -6 -2 -5 -13z"/>
<path d="M42011 23954 c0 -11 3 -14 6 -6 3 7 2 16 -1 19 -3 4 -6 -2 -5 -13z"/>
<path d="M42212 23950 c0 -14 2 -19 5 -12 2 6 2 18 0 25 -3 6 -5 1 -5 -13z"/>
<path d="M42061 23924 c0 -11 3 -14 6 -6 3 7 2 16 -1 19 -3 4 -6 -2 -5 -13z"/>
<path d="M42222 23900 c0 -14 2 -19 5 -12 2 6 2 18 0 25 -3 6 -5 1 -5 -13z"/>
<path d="M42232 23855 c0 -11 4 -31 8 -45 6 -20 8 -21 8 -5 0 11 -4 31 -8 45
-6 20 -8 21 -8 5z"/>
<path d="M42041 23814 c0 -11 3 -14 6 -6 3 7 2 16 -1 19 -3 4 -6 -2 -5 -13z"/>
<path d="M41981 23794 c0 -11 3 -14 6 -6 3 7 2 16 -1 19 -3 4 -6 -2 -5 -13z"/>
<path d="M41710 23750 c-6 -11 -8 -20 -6 -20 3 0 10 9 16 20 6 11 8 20 6 20
-3 0 -10 -9 -16 -20z"/>
<path d="M42031 23754 c0 -11 3 -14 6 -6 3 7 2 16 -1 19 -3 4 -6 -2 -5 -13z"/>
<path d="M42251 23754 c0 -11 3 -14 6 -6 3 7 2 16 -1 19 -3 4 -6 -2 -5 -13z"/>
<path d="M41972 23730 c0 -14 2 -19 5 -12 2 6 2 18 0 25 -3 6 -5 1 -5 -13z"/>
<path d="M42022 23705 c0 -16 2 -22 5 -12 2 9 2 23 0 30 -3 6 -5 -1 -5 -18z"/>
<path d="M41670 23680 c-6 -11 -8 -20 -6 -20 3 0 10 9 16 20 6 11 8 20 6 20
-3 0 -10 -9 -16 -20z"/>
<path d="M41962 23680 c0 -14 2 -19 5 -12 2 6 2 18 0 25 -3 6 -5 1 -5 -13z"/>
<path d="M40671 23604 c-61 -47 -111 -87 -111 -90 0 -8 135 -184 141 -184 5 0
178 128 237 176 5 4 -140 184 -148 184 -4 0 -57 -39 -119 -86z"/>
<path d="M42012 23650 c0 -14 2 -19 5 -12 2 6 2 18 0 25 -3 6 -5 1 -5 -13z"/>
<path d="M42271 23654 c0 -11 3 -14 6 -6 3 7 2 16 -1 19 -3 4 -6 -2 -5 -13z"/>
<path d="M41951 23624 c0 -11 3 -14 6 -6 3 7 2 16 -1 19 -3 4 -6 -2 -5 -13z"/>
<path d="M41941 23564 c0 -11 3 -14 6 -6 3 7 2 16 -1 19 -3 4 -6 -2 -5 -13z"/>
<path d="M41991 23524 c0 -11 3 -14 6 -6 3 7 2 16 -1 19 -3 4 -6 -2 -5 -13z"/>
<path d="M41932 23510 c0 -14 2 -19 5 -12 2 6 2 18 0 25 -3 6 -5 1 -5 -13z"/>
<path d="M41560 23490 c-6 -11 -8 -20 -6 -20 3 0 10 9 16 20 6 11 8 20 6 20
-3 0 -10 -9 -16 -20z"/>
<path d="M42311 23444 c0 -11 3 -14 6 -6 3 7 2 16 -1 19 -3 4 -6 -2 -5 -13z"/>
<path d="M41520 23420 c-6 -11 -8 -20 -6 -20 3 0 10 9 16 20 6 11 8 20 6 20
-3 0 -10 -9 -16 -20z"/>
<path d="M41971 23424 c0 -11 3 -14 6 -6 3 7 2 16 -1 19 -3 4 -6 -2 -5 -13z"/>
<path d="M42322 23380 c0 -14 2 -19 5 -12 2 6 2 18 0 25 -3 6 -5 1 -5 -13z"/>
<path d="M41470 23330 c-11 -22 -18 -40 -15 -40 2 0 14 18 25 40 11 22 18 40
15 40 -2 0 -14 -18 -25 -40z"/>
<path d="M41901 23334 c0 -11 3 -14 6 -6 3 7 2 16 -1 19 -3 4 -6 -2 -5 -13z"/>
<path d="M40210 23263 c-151 -107 -143 -90 -80 -180 87 -127 69 -122 171 -51
48 33 102 73 121 88 l32 27 -63 89 c-35 49 -67 92 -70 95 -3 4 -53 -27 -111
-68z"/>
<path d="M41951 23294 c0 -11 3 -14 6 -6 3 7 2 16 -1 19 -3 4 -6 -2 -5 -13z"/>
<path d="M42342 23260 c0 -14 2 -19 5 -12 2 6 2 18 0 25 -3 6 -5 1 -5 -13z"/>
<path d="M41942 23250 c0 -14 2 -19 5 -12 2 6 2 18 0 25 -3 6 -5 1 -5 -13z"/>
<path d="M41881 23234 c0 -11 3 -14 6 -6 3 7 2 16 -1 19 -3 4 -6 -2 -5 -13z"/>
<path d="M41400 23199 c-7 -11 -10 -23 -7 -25 2 -2 9 7 15 21 14 30 7 33 -8 4z"/>
<path d="M42352 23200 c0 -14 2 -19 5 -12 2 6 2 18 0 25 -3 6 -5 1 -5 -13z"/>
<path d="M41932 23190 c0 -14 2 -19 5 -12 2 6 2 18 0 25 -3 6 -5 1 -5 -13z"/>
<path d="M41871 23174 c0 -11 3 -14 6 -6 3 7 2 16 -1 19 -3 4 -6 -2 -5 -13z"/>
<path d="M41360 23120 c-11 -22 -18 -40 -15 -40 2 0 14 18 25 40 11 22 18 40
15 40 -2 0 -14 -18 -25 -40z"/>
<path d="M41921 23134 c0 -11 3 -14 6 -6 3 7 2 16 -1 19 -3 4 -6 -2 -5 -13z"/>
<path d="M42362 23130 c0 -14 2 -19 5 -12 2 6 2 18 0 25 -3 6 -5 1 -5 -13z"/>
<path d="M41861 23114 c0 -11 3 -14 6 -6 3 7 2 16 -1 19 -3 4 -6 -2 -5 -13z"/>
<path d="M41911 23074 c0 -11 3 -14 6 -6 3 7 2 16 -1 19 -3 4 -6 -2 -5 -13z"/>
<path d="M41851 23064 c0 -11 3 -14 6 -6 3 7 2 16 -1 19 -3 4 -6 -2 -5 -13z"/>
<path d="M42372 23050 c0 -14 2 -19 5 -12 2 6 2 18 0 25 -3 6 -5 1 -5 -13z"/>
<path d="M41316 23033 c-6 -14 -5 -15 5 -6 7 7 10 15 7 18 -3 3 -9 -2 -12 -12z"/>
<path d="M41902 23030 c0 -14 2 -19 5 -12 2 6 2 18 0 25 -3 6 -5 1 -5 -13z"/>
<path d="M41841 23004 c0 -11 3 -14 6 -6 3 7 2 16 -1 19 -3 4 -6 -2 -5 -13z"/>
<path d="M41296 22993 c-6 -14 -5 -15 5 -6 7 7 10 15 7 18 -3 3 -9 -2 -12 -12z"/>
<path d="M42382 22985 c0 -16 2 -22 5 -12 2 9 2 23 0 30 -3 6 -5 -1 -5 -18z"/>
<path d="M39700 22914 c-63 -42 -116 -78 -118 -79 -2 -2 26 -49 62 -104 l66
-102 122 82 c68 45 124 83 126 84 6 6 -123 195 -133 195 -6 0 -62 -34 -125
-76z"/>
<path d="M41831 22944 c0 -11 3 -14 6 -6 3 7 2 16 -1 19 -3 4 -6 -2 -5 -13z"/>
<path d="M41262 22925 c-17 -37 -14 -45 4 -12 9 16 14 31 11 33 -2 2 -9 -7
-15 -21z"/>
<path d="M42392 22905 c0 -16 2 -22 5 -12 2 9 2 23 0 30 -3 6 -5 -1 -5 -18z"/>
<path d="M41881 22904 c0 -11 3 -14 6 -6 3 7 2 16 -1 19 -3 4 -6 -2 -5 -13z"/>
<path d="M41821 22874 c0 -11 3 -14 6 -6 3 7 2 16 -1 19 -3 4 -6 -2 -5 -13z"/>
<path d="M41872 22850 c0 -14 2 -19 5 -12 2 6 2 18 0 25 -3 6 -5 1 -5 -13z"/>
<path d="M42402 22815 c0 -16 2 -22 5 -12 2 9 2 23 0 30 -3 6 -5 -1 -5 -18z"/>
<path d="M41862 22795 c0 -16 2 -22 5 -12 2 9 2 23 0 30 -3 6 -5 -1 -5 -18z"/>
<path d="M41801 22774 c0 -11 3 -14 6 -6 3 7 2 16 -1 19 -3 4 -6 -2 -5 -13z"/>
<path d="M41182 22755 c-17 -37 -14 -45 4 -12 9 16 14 31 11 33 -2 2 -9 -7
-15 -21z"/>
<path d="M41851 22744 c0 -11 3 -14 6 -6 3 7 2 16 -1 19 -3 4 -6 -2 -5 -13z"/>
<path d="M41791 22714 c0 -11 3 -14 6 -6 3 7 2 16 -1 19 -3 4 -6 -2 -5 -13z"/>
<path d="M42412 22705 c0 -16 2 -22 5 -12 2 9 2 23 0 30 -3 6 -5 -1 -5 -18z"/>
<path d="M41142 22665 c-17 -37 -14 -45 4 -12 9 16 14 31 11 33 -2 2 -9 -7
-15 -21z"/>
<path d="M39193 22593 l-121 -75 60 -99 c32 -54 63 -99 68 -99 5 0 63 33 129
73 88 52 120 76 116 87 -11 27 -117 190 -123 189 -4 -1 -62 -35 -129 -76z"/>
<path d="M42423 22620 c0 -25 2 -35 4 -22 2 12 2 32 0 45 -2 12 -4 2 -4 -23z"/>
<path d="M38377 22613 c23 -15 39 -31 36 -36 -3 -6 -1 -7 5 -3 7 4 12 9 12 10
0 6 -76 56 -85 56 -5 0 10 -12 32 -27z"/>
<path d="M41469 22595 c5 -11 17 -29 26 -40 l16 -20 -10 20 c-5 11 -17 29 -26
40 l-16 20 10 -20z"/>
<path d="M41106 22585 c-9 -26 -7 -32 5 -12 6 10 9 21 6 23 -2 3 -7 -2 -11
-11z"/>
<path d="M41821 22574 c0 -11 3 -14 6 -6 3 7 2 16 -1 19 -3 4 -6 -2 -5 -13z"/>
<path d="M38350 22573 c0 -6 8 -17 18 -24 16 -13 16 -13 2 6 -8 11 -16 22 -17
24 -2 2 -3 0 -3 -6z"/>
<path d="M38470 22557 c0 -2 19 -17 43 -32 23 -16 37 -22 30 -14 -12 15 -73
53 -73 46z"/>
<path d="M38445 22524 c10 -17 26 -41 37 -55 l20 -24 -17 31 c-10 17 -26 41
-37 55 l-20 24 17 -31z"/>
<path d="M42433 22500 c0 -25 2 -35 4 -22 2 12 2 32 0 45 -2 12 -4 2 -4 -23z"/>
<path d="M38362 22510 c0 -14 2 -19 5 -12 2 6 2 18 0 25 -3 6 -5 1 -5 -13z"/>
<path d="M41076 22515 c-9 -26 -7 -32 5 -12 6 10 9 21 6 23 -2 3 -7 -2 -11
-11z"/>
<path d="M41811 22514 c0 -11 3 -14 6 -6 3 7 2 16 -1 19 -3 4 -6 -2 -5 -13z"/>
<path d="M41752 22490 c0 -14 2 -19 5 -12 2 6 2 18 0 25 -3 6 -5 1 -5 -13z"/>
<path d="M38410 22481 c5 -11 15 -23 21 -27 6 -3 3 5 -6 20 -20 30 -30 35 -15
7z"/>
<path d="M41540 22480 c6 -11 13 -20 16 -20 2 0 0 9 -6 20 -6 11 -13 20 -16
20 -2 0 0 -9 6 -20z"/>
<path d="M41490 22460 c6 -11 13 -20 16 -20 2 0 0 9 -6 20 -6 11 -13 20 -16
20 -2 0 0 -9 6 -20z"/>
<path d="M38371 22444 c0 -11 3 -14 6 -6 3 7 2 16 -1 19 -3 4 -6 -2 -5 -13z"/>
<path d="M42079 22443 c-13 -16 -12 -17 4 -4 16 13 21 21 13 21 -2 0 -10 -8
-17 -17z"/>
<path d="M41742 22430 c0 -14 2 -19 5 -12 2 6 2 18 0 25 -3 6 -5 1 -5 -13z"/>
<path d="M38450 22420 c6 -11 13 -20 16 -20 2 0 0 9 -6 20 -6 11 -13 20 -16
20 -2 0 0 -9 6 -20z"/>
<path d="M41036 22415 c-9 -26 -7 -32 5 -12 6 10 9 21 6 23 -2 3 -7 -2 -11
-11z"/>
<path d="M42039 22413 c-13 -16 -12 -17 4 -4 9 7 17 15 17 17 0 8 -8 3 -21
-13z"/>
<path d="M41590 22400 c6 -11 13 -20 16 -20 2 0 0 9 -6 20 -6 11 -13 20 -16
20 -2 0 0 -9 6 -20z"/>
<path d="M41792 22390 c0 -14 2 -19 5 -12 2 6 2 18 0 25 -3 6 -5 1 -5 -13z"/>
<path d="M38735 22375 c30 -26 65 -49 65 -42 0 2 -21 18 -47 36 -36 25 -41 26
-18 6z"/>
<path d="M41731 22384 c0 -11 3 -14 6 -6 3 7 2 16 -1 19 -3 4 -6 -2 -5 -13z"/>
<path d="M41555 22356 c10 -14 19 -26 22 -26 7 0 -17 39 -28 46 -6 3 -3 -5 6
-20z"/>
<path d="M41969 22363 c-13 -16 -12 -17 4 -4 16 13 21 21 13 21 -2 0 -10 -8
-17 -17z"/>
<path d="M41625 22346 c10 -14 19 -26 22 -26 7 0 -17 39 -28 46 -6 3 -3 -5 6
-20z"/>
<path d="M42443 22330 c0 -25 2 -35 4 -22 2 12 2 32 0 45 -2 12 -4 2 -4 -23z"/>
<path d="M38391 22344 c0 -11 3 -14 6 -6 3 7 2 16 -1 19 -3 4 -6 -2 -5 -13z"/>
<path d="M41781 22344 c0 -11 3 -14 6 -6 3 7 2 16 -1 19 -3 4 -6 -2 -5 -13z"/>
<path d="M42019 22333 c-13 -16 -12 -17 4 -4 16 13 21 21 13 21 -2 0 -10 -8
-17 -17z"/>
<path d="M41721 22324 c0 -11 3 -14 6 -6 3 7 2 16 -1 19 -3 4 -6 -2 -5 -13z"/>
<path d="M38810 22326 c0 -2 8 -10 18 -17 15 -13 16 -12 3 4 -13 16 -21 21
-21 13z"/>
<path d="M40996 22315 c-9 -26 -7 -32 5 -12 6 10 9 21 6 23 -2 3 -7 -2 -11
-11z"/>
<path d="M38590 22300 c6 -11 13 -20 16 -20 2 0 0 9 -6 20 -6 11 -13 20 -16
20 -2 0 0 -9 6 -20z"/>
<path d="M41870 22289 l-35 -30 38 26 c33 24 43 35 34 35 -1 0 -18 -14 -37
-31z"/>
<path d="M38850 22296 c0 -2 14 -14 30 -26 17 -12 30 -19 30 -16 0 2 -13 14
-30 26 -16 12 -30 19 -30 16z"/>
<path d="M41771 22284 c0 -11 3 -14 6 -6 3 7 2 16 -1 19 -3 4 -6 -2 -5 -13z"/>
<path d="M41930 22269 c-35 -31 -35 -31 -3 -9 18 11 35 25 38 30 10 16 2 11
-35 -21z"/>
<path d="M38401 22274 c0 -11 3 -14 6 -6 3 7 2 16 -1 19 -3 4 -6 -2 -5 -13z"/>
<path d="M41609 22275 c5 -11 17 -29 26 -40 l16 -20 -10 20 c-5 11 -17 29 -26
40 l-16 20 10 -20z"/>
<path d="M38560 22250 c6 -11 13 -20 16 -20 2 0 0 9 -6 20 -6 11 -13 20 -16
20 -2 0 0 -9 6 -20z"/>
<path d="M41711 22257 c-1 -10 -5 -15 -11 -12 -6 4 -7 -1 -3 -11 6 -15 7 -15
15 0 5 9 7 22 4 29 -2 7 -5 4 -5 -6z"/>
<path d="M41809 22243 c-13 -16 -12 -17 4 -4 16 13 21 21 13 21 -2 0 -10 -8
-17 -17z"/>
<path d="M38920 22246 c0 -2 14 -14 30 -26 17 -12 30 -19 30 -16 0 2 -13 14
-30 26 -16 12 -30 19 -30 16z"/>
<path d="M38411 22224 c0 -11 3 -14 6 -6 3 7 2 16 -1 19 -3 4 -6 -2 -5 -13z"/>
<path d="M41761 22221 c-1 -20 1 -21 14 -11 16 14 21 25 6 16 -5 -4 -12 0 -14
6 -3 7 -6 2 -6 -11z"/>
<path d="M41869 22223 c-13 -16 -12 -17 4 -4 9 7 17 15 17 17 0 8 -8 3 -21
-13z"/>
<path d="M40956 22205 c-9 -26 -7 -32 5 -12 6 10 9 21 6 23 -2 3 -7 -2 -11
-11z"/>
<path d="M38600 22190 c6 -11 13 -20 16 -20 2 0 0 9 -6 20 -6 11 -13 20 -16
20 -2 0 0 -9 6 -20z"/>
<path d="M38990 22196 c0 -2 8 -10 18 -17 15 -13 16 -12 3 4 -13 16 -21 21
-21 13z"/>
<path d="M41799 22173 c-13 -16 -12 -17 4 -4 16 13 21 21 13 21 -2 0 -10 -8
-17 -17z"/>
<path d="M39030 22166 c0 -2 8 -10 18 -17 15 -13 16 -12 3 4 -13 16 -21 21
-21 13z"/>
<path d="M40941 22154 c0 -11 3 -14 6 -6 3 7 2 16 -1 19 -3 4 -6 -2 -5 -13z"/>
<path d="M38635 22134 c10 -17 26 -41 37 -55 l20 -24 -17 31 c-10 17 -26 41
-37 55 l-20 24 17 -31z"/>
<path d="M41756 22141 c-10 -11 -16 -26 -13 -33 4 -10 6 -10 6 1 1 8 8 23 18
33 9 10 14 18 11 18 -3 0 -13 -9 -22 -19z"/>
<path d="M38431 22124 c0 -11 3 -14 6 -6 3 7 2 16 -1 19 -3 4 -6 -2 -5 -13z"/>
<path d="M39070 22136 c0 -2 8 -10 18 -17 15 -13 16 -12 3 4 -13 16 -21 21
-21 13z"/>
<path d="M38720 22100 c6 -11 13 -20 16 -20 2 0 0 9 -6 20 -6 11 -13 20 -16
20 -2 0 0 -9 6 -20z"/>
<path d="M42454 22005 c0 -66 1 -92 3 -57 2 34 2 88 0 120 -2 31 -3 3 -3 -63z"/>
<path d="M39110 22106 c0 -2 8 -10 18 -17 15 -13 16 -12 3 4 -13 16 -21 21
-21 13z"/>
<path d="M41681 22094 c0 -11 3 -14 6 -6 3 7 2 16 -1 19 -3 4 -6 -2 -5 -13z"/>
<path d="M38441 22074 c0 -11 3 -14 6 -6 3 7 2 16 -1 19 -3 4 -6 -2 -5 -13z"/>
<path d="M38165 22014 c-66 -35 -124 -65 -129 -67 -9 -3 11 -46 71 -155 l35
-62 126 66 c70 37 129 69 132 71 5 5 -102 213 -110 212 -3 0 -59 -29 -125 -65z"/>
<path d="M39150 22076 c0 -2 8 -10 18 -17 15 -13 16 -12 3 4 -13 16 -21 21
-21 13z"/>
<path d="M38705 22026 c10 -14 19 -26 22 -26 7 0 -17 39 -28 46 -6 3 -3 -5 6
-20z"/>
<path d="M39190 22046 c0 -2 8 -10 18 -17 15 -13 16 -12 3 4 -13 16 -21 21
-21 13z"/>
<path d="M41671 22034 c0 -11 3 -14 6 -6 3 7 2 16 -1 19 -3 4 -6 -2 -5 -13z"/>
<path d="M39230 22016 c0 -2 8 -10 18 -17 15 -13 16 -12 3 4 -13 16 -21 21
-21 13z"/>
<path d="M41721 21994 c0 -11 3 -14 6 -6 3 7 2 16 -1 19 -3 4 -6 -2 -5 -13z"/>
<path d="M38461 21974 c0 -11 3 -14 6 -6 3 7 2 16 -1 19 -3 4 -6 -2 -5 -13z"/>
<path d="M39295 21960 c10 -11 20 -20 23 -20 3 0 -3 9 -13 20 -10 11 -20 20
-23 20 -3 0 3 -9 13 -20z"/>
<path d="M41711 21954 c0 -11 3 -14 6 -6 3 7 2 16 -1 19 -3 4 -6 -2 -5 -13z"/>
<path d="M38830 21930 c6 -11 13 -20 16 -20 2 0 0 9 -6 20 -6 11 -13 20 -16
20 -2 0 0 -9 6 -20z"/>
<path d="M39330 21936 c0 -2 8 -10 18 -17 15 -13 16 -12 3 4 -13 16 -21 21
-21 13z"/>
<path d="M41701 21894 c0 -11 3 -14 6 -6 3 7 2 16 -1 19 -3 4 -6 -2 -5 -13z"/>
<path d="M38865 21876 c10 -14 19 -26 22 -26 7 0 -17 39 -28 46 -6 3 -3 -5 6
-20z"/>
<path d="M39395 21880 c10 -11 20 -20 23 -20 3 0 -3 9 -13 20 -10 11 -20 20
-23 20 -3 0 3 -9 13 -20z"/>
<path d="M38481 21874 c0 -11 3 -14 6 -6 3 7 2 16 -1 19 -3 4 -6 -2 -5 -13z"/>
<path d="M40846 21864 c-4 -14 -5 -28 -3 -31 3 -2 8 8 11 23 4 14 5 28 3 31
-3 2 -8 -8 -11 -23z"/>
<path d="M41641 21864 c0 -11 3 -14 6 -6 3 7 2 16 -1 19 -3 4 -6 -2 -5 -13z"/>
<path d="M42452 21855 c0 -16 2 -22 5 -12 2 9 2 23 0 30 -3 6 -5 -1 -5 -18z"/>
<path d="M38820 21850 c6 -11 13 -20 16 -20 2 0 0 9 -6 20 -6 11 -13 20 -16
20 -2 0 0 -9 6 -20z"/>
<path d="M39445 21840 c10 -11 20 -20 23 -20 3 0 -3 9 -13 20 -10 11 -20 20
-23 20 -3 0 3 -9 13 -20z"/>
<path d="M38492 21830 c0 -14 2 -19 5 -12 2 6 2 18 0 25 -3 6 -5 1 -5 -13z"/>
<path d="M38901 21823 c7 -12 15 -20 18 -17 3 2 -3 12 -13 22 -17 16 -18 16
-5 -5z"/>
<path d="M40980 21820 c6 -11 13 -20 16 -20 2 0 0 9 -6 20 -6 11 -13 20 -16
20 -2 0 0 -9 6 -20z"/>
<path d="M41632 21810 c0 -14 2 -19 5 -12 2 6 2 18 0 25 -3 6 -5 1 -5 -13z"/>
<path d="M39480 21817 c0 -2 26 -26 57 -53 31 -27 54 -44 50 -37 -9 14 -107
97 -107 90z"/>
<path d="M40826 21794 c-4 -14 -5 -28 -3 -31 3 -2 8 8 11 23 4 14 5 28 3 31
-3 2 -8 -8 -11 -23z"/>
<path d="M37630 21751 c-68 -33 -126 -64 -128 -69 -2 -8 81 -199 92 -210 4 -3
255 114 264 123 6 6 -89 215 -97 215 -3 0 -62 -27 -131 -59z"/>
<path d="M40950 21770 c6 -11 13 -20 16 -20 2 0 0 9 -6 20 -6 11 -13 20 -16
20 -2 0 0 -9 6 -20z"/>
<path d="M41010 21770 c6 -11 13 -20 16 -20 2 0 0 9 -6 20 -6 11 -13 20 -16
20 -2 0 0 -9 6 -20z"/>
<path d="M38940 21761 c5 -11 15 -23 21 -27 6 -3 3 5 -6 20 -20 30 -30 35 -15
7z"/>
<path d="M41040 21720 c6 -11 13 -20 16 -20 2 0 0 9 -6 20 -6 11 -13 20 -16
20 -2 0 0 -9 6 -20z"/>
<path d="M38909 21715 c5 -11 17 -29 26 -40 l16 -20 -10 20 c-5 11 -17 29 -26
40 l-16 20 10 -20z"/>
<path d="M38980 21700 c6 -11 13 -20 16 -20 2 0 0 9 -6 20 -6 11 -13 20 -16
20 -2 0 0 -9 6 -20z"/>
<path d="M39620 21695 c13 -14 26 -25 28 -25 3 0 -5 11 -18 25 -13 14 -26 25
-28 25 -3 0 5 -11 18 -25z"/>
<path d="M40771 21583 c-63 -273 -94 -504 -107 -799 l-7 -161 41 -55 c133
-180 286 -446 380 -658 59 -134 142 -371 143 -409 1 -52 17 11 49 190 l31 175
-261 362 c-144 199 -258 366 -255 372 3 5 10 10 15 10 5 0 120 -155 257 -344
136 -190 248 -344 249 -343 10 9 84 481 79 495 -4 9 -9 24 -10 32 -50 299
-275 829 -504 1182 -31 48 -59 88 -62 88 -3 0 -20 -62 -38 -137z"/>
<path d="M41611 21704 c0 -11 3 -14 6 -6 3 7 2 16 -1 19 -3 4 -6 -2 -5 -13z"/>
<path d="M38521 21694 c0 -11 3 -14 6 -6 3 7 2 16 -1 19 -3 4 -6 -2 -5 -13z"/>
<path d="M41661 21664 c0 -11 3 -14 6 -6 3 7 2 16 -1 19 -3 4 -6 -2 -5 -13z"/>
<path d="M38531 21654 c0 -11 3 -14 6 -6 3 7 2 16 -1 19 -3 4 -6 -2 -5 -13z"/>
<path d="M39660 21667 c0 -3 41 -42 90 -87 50 -45 90 -80 90 -77 0 3 -40 42
-90 87 -49 45 -90 80 -90 77z"/>
<path d="M41020 21650 c6 -11 13 -20 16 -20 2 0 0 9 -6 20 -6 11 -13 20 -16
20 -2 0 0 -9 6 -20z"/>
<path d="M41601 21634 c0 -11 3 -14 6 -6 3 7 2 16 -1 19 -3 4 -6 -2 -5 -13z"/>
<path d="M42443 21605 c0 -22 2 -30 4 -17 2 12 2 30 0 40 -3 9 -5 -1 -4 -23z"/>
<path d="M38541 21614 c0 -11 3 -14 6 -6 3 7 2 16 -1 19 -3 4 -6 -2 -5 -13z"/>
<path d="M41060 21580 c6 -11 13 -20 16 -20 2 0 0 9 -6 20 -6 11 -13 20 -16
20 -2 0 0 -9 6 -20z"/>
<path d="M38551 21574 c0 -11 3 -14 6 -6 3 7 2 16 -1 19 -3 4 -6 -2 -5 -13z"/>
<path d="M41591 21574 c0 -11 3 -14 6 -6 3 7 2 16 -1 19 -3 4 -6 -2 -5 -13z"/>
<path d="M41140 21550 c6 -11 13 -20 16 -20 2 0 0 9 -6 20 -6 11 -13 20 -16
20 -2 0 0 -9 6 -20z"/>
<path d="M39095 21524 c10 -17 26 -41 37 -55 l20 -24 -17 31 c-10 17 -26 41
-37 55 l-20 24 17 -31z"/>
<path d="M41090 21530 c6 -11 13 -20 16 -20 2 0 0 9 -6 20 -6 11 -13 20 -16
20 -2 0 0 -9 6 -20z"/>
<path d="M39045 21504 c10 -17 26 -41 37 -55 l20 -24 -17 31 c-10 17 -26 41
-37 55 l-20 24 17 -31z"/>
<path d="M41170 21500 c6 -11 13 -20 16 -20 2 0 0 9 -6 20 -6 11 -13 20 -16
20 -2 0 0 -9 6 -20z"/>
<path d="M41125 21471 c8 -17 19 -33 25 -36 5 -3 1 10 -11 29 -25 43 -36 48
-14 7z"/>
<path d="M42433 21455 c0 -22 2 -30 4 -17 2 12 2 30 0 40 -3 9 -5 -1 -4 -23z"/>
<path d="M39870 21477 c0 -1 35 -36 78 -77 l77 -75 -75 78 c-69 71 -80 82 -80
74z"/>
<path d="M41210 21430 c6 -11 13 -20 16 -20 2 0 0 9 -6 20 -6 11 -13 20 -16
20 -2 0 0 -9 6 -20z"/>
<path d="M41622 21430 c0 -14 2 -19 5 -12 2 6 2 18 0 25 -3 6 -5 1 -5 -13z"/>
<path d="M41561 21414 c0 -11 3 -14 6 -6 3 7 2 16 -1 19 -3 4 -6 -2 -5 -13z"/>
<path d="M38601 21374 c0 -11 3 -14 6 -6 3 7 2 16 -1 19 -3 4 -6 -2 -5 -13z"/>
<path d="M41611 21374 c0 -11 3 -14 6 -6 3 7 2 16 -1 19 -3 4 -6 -2 -5 -13z"/>
<path d="M42422 21360 c0 -19 2 -27 5 -17 2 9 2 25 0 35 -3 9 -5 1 -5 -18z"/>
<path d="M41552 21360 c0 -14 2 -19 5 -12 2 6 2 18 0 25 -3 6 -5 1 -5 -13z"/>
<path d="M39215 21336 c10 -14 19 -26 22 -26 7 0 -17 39 -28 46 -6 3 -3 -5 6
-20z"/>
<path d="M39175 21304 c10 -17 26 -41 37 -55 l20 -24 -17 31 c-10 17 -26 41
-37 55 l-20 24 17 -31z"/>
<path d="M40045 21300 c10 -11 20 -20 23 -20 3 0 -3 9 -13 20 -10 11 -20 20
-23 20 -3 0 3 -9 13 -20z"/>
<path d="M42412 21285 c0 -16 2 -22 5 -12 2 9 2 23 0 30 -3 6 -5 -1 -5 -18z"/>
<path d="M41296 21287 c3 -10 9 -15 12 -12 3 3 0 11 -7 18 -10 9 -11 8 -5 -6z"/>
<path d="M41591 21274 c0 -11 3 -14 6 -6 3 7 2 16 -1 19 -3 4 -6 -2 -5 -13z"/>
<path d="M38631 21264 c0 -11 3 -14 6 -6 3 7 2 16 -1 19 -3 4 -6 -2 -5 -13z"/>
<path d="M41250 21260 c6 -11 13 -20 16 -20 2 0 0 9 -6 20 -6 11 -13 20 -16
20 -2 0 0 -9 6 -20z"/>
<path d="M42200 21270 c-8 -5 -10 -10 -5 -10 6 0 17 5 25 10 8 5 11 10 5 10
-5 0 -17 -5 -25 -10z"/>
<path d="M40175 21170 c55 -57 101 -106 103 -109 1 -2 4 -2 7 0 2 3 -44 52
-103 110 l-107 104 100 -105z"/>
<path d="M41531 21244 c0 -11 3 -14 6 -6 3 7 2 16 -1 19 -3 4 -6 -2 -5 -13z"/>
<path d="M42140 21240 c-19 -11 -31 -19 -27 -20 11 0 67 29 67 35 0 7 -1 7
-40 -15z"/>
<path d="M41291 21190 c12 -22 24 -38 26 -36 4 4 -37 76 -44 76 -2 0 6 -18 18
-40z"/>
<path d="M42060 21200 c-19 -11 -31 -19 -27 -20 11 0 67 29 67 35 0 7 -1 7
-40 -15z"/>
<path d="M42190 21205 c-14 -8 -20 -14 -15 -14 6 0 21 6 35 14 14 8 21 14 15
14 -5 0 -21 -6 -35 -14z"/>
<path d="M42402 21200 c0 -14 2 -19 5 -12 2 6 2 18 0 25 -3 6 -5 1 -5 -13z"/>
<path d="M41521 21184 c0 -11 3 -14 6 -6 3 7 2 16 -1 19 -3 4 -6 -2 -5 -13z"/>
<path d="M39681 21164 c0 -11 3 -14 6 -6 3 7 2 16 -1 19 -3 4 -6 -2 -5 -13z"/>
<path d="M41370 21160 c6 -11 13 -20 16 -20 2 0 0 9 -6 20 -6 11 -13 20 -16
20 -2 0 0 -9 6 -20z"/>
<path d="M39622 21150 c0 -14 2 -19 5 -12 2 6 2 18 0 25 -3 6 -5 1 -5 -13z"/>
<path d="M39280 21141 c5 -11 15 -23 21 -27 6 -3 3 5 -6 20 -20 30 -30 35 -15
7z"/>
<path d="M41571 21144 c0 -11 3 -14 6 -6 3 7 2 16 -1 19 -3 4 -6 -2 -5 -13z"/>
<path d="M39349 21135 c5 -11 17 -29 26 -40 l16 -20 -10 20 c-5 11 -17 29 -26
40 l-16 20 10 -20z"/>
<path d="M42392 21130 c0 -14 2 -19 5 -12 2 6 2 18 0 25 -3 6 -5 1 -5 -13z"/>
<path d="M41400 21110 c6 -11 13 -20 16 -20 2 0 0 9 -6 20 -6 11 -13 20 -16
20 -2 0 0 -9 6 -20z"/>
<path d="M42020 21120 c-9 -6 -10 -10 -3 -10 6 0 15 5 18 10 8 12 4 12 -15 0z"/>
<path d="M39612 21100 c0 -14 2 -19 5 -12 2 6 2 18 0 25 -3 6 -5 1 -5 -13z"/>
<path d="M41350 21090 c6 -11 13 -20 16 -20 2 0 0 9 -6 20 -6 11 -13 20 -16
20 -2 0 0 -9 6 -20z"/>
<path d="M41980 21100 c-9 -6 -10 -10 -3 -10 6 0 15 5 18 10 8 12 4 12 -15 0z"/>
<path d="M42381 21074 c0 -11 3 -14 6 -6 3 7 2 16 -1 19 -3 4 -6 -2 -5 -13z"/>
<path d="M41430 21060 c6 -11 13 -20 16 -20 2 0 0 9 -6 20 -6 11 -13 20 -16
20 -2 0 0 -9 6 -20z"/>
<path d="M43337 21065 c-8 -8 -17 -12 -19 -10 -3 3 -5 -2 -5 -10 0 -12 6 -10
24 7 13 12 23 23 23 25 0 7 -9 2 -23 -12z"/>
<path d="M39405 21046 c10 -14 19 -26 22 -26 7 0 -17 39 -28 46 -6 3 -3 -5 6
-20z"/>
<path d="M39601 21044 c0 -11 3 -14 6 -6 3 7 2 16 -1 19 -3 4 -6 -2 -5 -13z"/>
<path d="M41551 21044 c0 -11 3 -14 6 -6 3 7 2 16 -1 19 -3 4 -6 -2 -5 -13z"/>
<path d="M41880 21050 c-9 -6 -10 -10 -3 -10 6 0 15 5 18 10 8 12 4 12 -15 0z"/>
<path d="M39355 21026 c10 -14 19 -26 22 -26 7 0 -17 39 -28 46 -6 3 -3 -5 6
-20z"/>
<path d="M40359 20973 c41 -46 76 -83 78 -83 7 0 -113 134 -134 151 -10 8 15
-23 56 -68z"/>
<path d="M43350 21006 c-25 -30 -27 -35 -7 -17 15 14 27 20 28 15 0 -5 5 2 10
15 5 13 8 25 7 26 -2 1 -19 -17 -38 -39z"/>
<path d="M41695 21020 c-3 -6 1 -7 9 -4 18 7 21 14 7 14 -6 0 -13 -4 -16 -10z"/>
<path d="M43224 21014 c-18 -14 -18 -14 6 -3 31 14 36 19 24 19 -6 0 -19 -7
-30 -16z"/>
<path d="M41406 20997 c3 -10 9 -15 12 -12 3 3 0 11 -7 18 -10 9 -11 8 -5 -6z"/>
<path d="M41471 20990 c14 -31 19 -36 19 -24 0 6 -7 19 -16 30 -14 18 -14 18
-3 -6z"/>
<path d="M41655 21000 c-3 -6 1 -7 9 -4 18 7 21 14 7 14 -6 0 -13 -4 -16 -10z"/>
<path d="M42340 20998 c-239 -62 -564 -260 -811 -495 -42 -40 -79 -70 -82 -66
-4 3 -7 2 -7 -4 0 -5 -20 -121 -45 -258 -25 -137 -43 -250 -41 -252 2 -2 101
39 220 91 171 75 230 106 274 144 80 67 221 177 324 251 73 52 89 69 97 100
33 124 46 181 76 330 18 91 33 166 32 167 -1 1 -18 -3 -37 -8z"/>
<path d="M39591 20984 c0 -11 3 -14 6 -6 3 7 2 16 -1 19 -3 4 -6 -2 -5 -13z"/>
<path d="M41541 20984 c0 -11 3 -14 6 -6 3 7 2 16 -1 19 -3 4 -6 -2 -5 -13z"/>
<path d="M43108 20959 c-43 -21 -78 -41 -78 -44 0 -5 159 72 169 81 14 13 -25
-2 -91 -37z"/>
<path d="M43264 20978 l-19 -23 23 19 c21 18 27 26 19 26 -2 0 -12 -10 -23
-22z"/>
<path d="M41598 20974 c-39 -21 -35 -28 5 -8 37 19 44 24 31 24 -5 -1 -21 -8
-36 -16z"/>
<path d="M41715 20970 c-3 -6 1 -7 9 -4 18 7 21 14 7 14 -6 0 -13 -4 -16 -10z"/>
<path d="M41436 20945 c24 -39 24 -40 24 -28 0 6 -9 21 -21 34 l-20 24 17 -30z"/>
<path d="M39582 20940 c0 -14 2 -19 5 -12 2 6 2 18 0 25 -3 6 -5 1 -5 -13z"/>
<path d="M43274 20918 l-29 -33 33 29 c17 17 32 31 32 33 0 8 -8 1 -36 -29z"/>
<path d="M39430 20910 c6 -11 13 -20 16 -20 2 0 0 9 -6 20 -6 11 -13 20 -16
20 -2 0 0 -9 6 -20z"/>
<path d="M39631 20914 c0 -11 3 -14 6 -6 3 7 2 16 -1 19 -3 4 -6 -2 -5 -13z"/>
<path d="M41588 20909 c-21 -11 -38 -22 -38 -24 0 -5 79 32 89 41 12 11 -18 1
-51 -17z"/>
<path d="M39499 20905 c5 -11 17 -29 26 -40 l16 -20 -10 20 c-5 11 -17 29 -26
40 l-16 20 10 -20z"/>
<path d="M43189 20893 l-24 -28 28 24 c25 23 32 31 24 31 -2 0 -14 -12 -28
-27z"/>
<path d="M42995 20900 c-3 -6 1 -7 9 -4 18 7 21 14 7 14 -6 0 -13 -4 -16 -10z"/>
<path d="M39178 20873 c7 -3 16 -2 19 1 4 3 -2 6 -13 5 -11 0 -14 -3 -6 -6z"/>
<path d="M39482 20830 c17 -28 33 -48 36 -46 4 5 -56 96 -63 96 -2 0 10 -23
27 -50z"/>
<path d="M40460 20855 c13 -14 26 -25 28 -25 3 0 -5 11 -18 25 -13 14 -26 25
-28 25 -3 0 5 -11 18 -25z"/>
<path d="M41520 20869 c0 -5 5 -7 10 -4 6 3 10 8 10 11 0 2 -4 4 -10 4 -5 0
-10 -5 -10 -11z"/>
<path d="M38998 20863 c7 -3 16 -2 19 1 4 3 -2 6 -13 5 -11 0 -14 -3 -6 -6z"/>
<path d="M39622 20850 c0 -14 2 -19 5 -12 2 6 2 18 0 25 -3 6 -5 1 -5 -13z"/>
<path d="M41461 20854 c0 -11 3 -14 6 -6 3 7 2 16 -1 19 -3 4 -6 -2 -5 -13z"/>
<path d="M42898 20849 c-21 -11 -38 -22 -38 -24 0 -3 18 4 40 15 22 11 40 23
40 25 0 7 0 7 -42 -16z"/>
<path d="M43201 20835 c-17 -20 -31 -39 -31 -42 0 -4 3 -3 8 3 4 5 20 24 36
42 17 17 27 32 24 32 -3 0 -20 -16 -37 -35z"/>
<path d="M39552 20821 c7 -9 14 -18 15 -20 2 -2 3 5 3 16 0 11 -7 20 -15 20
-12 0 -12 -3 -3 -16z"/>
<path d="M43129 20823 c-13 -16 -12 -17 4 -4 16 13 21 21 13 21 -2 0 -10 -8
-17 -17z"/>
<path d="M39148 20823 c7 -3 16 -2 19 1 4 3 -2 6 -13 5 -11 0 -14 -3 -6 -6z"/>
<path d="M41511 20814 c0 -11 3 -14 6 -6 3 7 2 16 -1 19 -3 4 -6 -2 -5 -13z"/>
<path d="M40520 20780 c17 -22 34 -40 37 -40 2 0 -10 18 -27 40 -17 22 -34 40
-37 40 -2 0 10 -18 27 -40z"/>
<path d="M39268 20793 c7 -3 16 -2 19 1 4 3 -2 6 -13 5 -11 0 -14 -3 -6 -6z"/>
<path d="M42765 20775 c-22 -13 -37 -25 -33 -25 9 0 78 41 78 46 0 6 -3 5 -45
-21z"/>
<path d="M43134 20758 l-19 -23 23 19 c21 18 27 26 19 26 -2 0 -12 -10 -23
-22z"/>
<path d="M43054 20738 l-29 -33 33 29 c17 17 32 31 32 33 0 8 -8 1 -36 -29z"/>
<path d="M41442 20735 c0 -16 2 -22 5 -12 2 9 2 23 0 30 -3 6 -5 -1 -5 -18z"/>
<path d="M39458 20743 c7 -3 16 -2 19 1 4 3 -2 6 -13 5 -11 0 -14 -3 -6 -6z"/>
<path d="M39540 20726 c0 -2 7 -7 16 -10 8 -3 12 -2 9 4 -6 10 -25 14 -25 6z"/>
<path d="M40575 20710 c10 -11 20 -20 23 -20 3 0 -3 9 -13 20 -10 11 -20 20
-23 20 -3 0 3 -9 13 -20z"/>
<path d="M43084 20698 l-29 -33 33 29 c17 17 32 31 32 33 0 8 -8 1 -36 -29z"/>
<path d="M39630 20700 c6 -11 13 -20 16 -20 2 0 0 9 -6 20 -6 11 -13 20 -16
20 -2 0 0 -9 6 -20z"/>
<path d="M42644 20704 c-18 -14 -18 -15 4 -4 12 6 22 13 22 15 0 8 -5 6 -26
-11z"/>
<path d="M39580 20680 c6 -11 13 -20 16 -20 2 0 0 9 -6 20 -6 11 -13 20 -16
20 -2 0 0 -9 6 -20z"/>
<path d="M42594 20674 c-18 -14 -18 -15 4 -4 12 6 22 13 22 15 0 8 -5 6 -26
-11z"/>
<path d="M42984 20658 l-29 -33 33 29 c17 17 32 31 32 33 0 8 -8 1 -36 -29z"/>
<path d="M43256 20675 c-9 -26 -7 -32 5 -12 6 10 9 21 6 23 -2 3 -7 -2 -11
-11z"/>
<path d="M40600 20676 c0 -2 8 -10 18 -17 15 -13 16 -12 3 4 -13 16 -21 21
-21 13z"/>
<path d="M39665 20646 c10 -14 19 -26 22 -26 7 0 -17 39 -28 46 -6 3 -3 -5 6
-20z"/>
<path d="M41481 20654 c0 -11 3 -14 6 -6 3 7 2 16 -1 19 -3 4 -6 -2 -5 -13z"/>
<path d="M42544 20644 c-18 -14 -18 -15 4 -4 12 6 22 13 22 15 0 8 -5 6 -26
-11z"/>
<path d="M41421 20624 c0 -11 3 -14 6 -6 3 7 2 16 -1 19 -3 4 -6 -2 -5 -13z"/>
<path d="M43009 20613 l-24 -28 28 24 c25 23 32 31 24 31 -2 0 -14 -12 -28
-27z"/>
<path d="M42483 20609 c-35 -22 -46 -37 -15 -20 22 13 58 40 52 41 -3 0 -20
-10 -37 -21z"/>
<path d="M42929 20593 c-13 -16 -12 -17 4 -4 16 13 21 21 13 21 -2 0 -10 -8
-17 -17z"/>
<path d="M41471 20584 c0 -11 3 -14 6 -6 3 7 2 16 -1 19 -3 4 -6 -2 -5 -13z"/>
<path d="M39719 20565 c5 -11 17 -29 26 -40 l16 -20 -10 20 c-5 11 -17 29 -26
40 l-16 20 10 -20z"/>
<path d="M41411 20564 c0 -11 3 -14 6 -6 3 7 2 16 -1 19 -3 4 -6 -2 -5 -13z"/>
<path d="M42395 20554 c-51 -34 -69 -52 -29 -29 35 20 82 54 74 55 -3 0 -23
-12 -45 -26z"/>
<path d="M38860 20555 c0 -5 5 -17 10 -25 5 -8 10 -10 10 -5 0 6 -5 17 -10 25
-5 8 -10 11 -10 5z"/>
<path d="M39675 20534 c10 -17 26 -41 37 -55 l20 -24 -17 31 c-10 17 -26 41
-37 55 l-20 24 17 -31z"/>
<path d="M42934 20528 l-29 -33 33 29 c17 17 32 31 32 33 0 8 -8 1 -36 -29z"/>
<path d="M42859 20513 l-34 -38 38 34 c34 33 42 41 34 41 -2 0 -19 -17 -38
-37z"/>
<path d="M42295 20484 l-30 -26 33 22 c17 12 32 23 32 26 0 7 -4 5 -35 -22z"/>
<path d="M39775 20476 c10 -14 19 -26 22 -26 7 0 -17 39 -28 46 -6 3 -3 -5 6
-20z"/>
<path d="M43186 20485 c-9 -26 -7 -32 5 -12 6 10 9 21 6 23 -2 3 -7 -2 -11
-11z"/>
<path d="M42869 20453 l-34 -38 38 34 c34 33 42 41 34 41 -2 0 -19 -17 -38
-37z"/>
<path d="M41451 20464 c0 -11 3 -14 6 -6 3 7 2 16 -1 19 -3 4 -6 -2 -5 -13z"/>
<path d="M40550 20456 c0 -2 7 -7 16 -10 8 -3 12 -2 9 4 -6 10 -25 14 -25 6z"/>
<path d="M42779 20423 l-34 -38 38 34 c34 33 42 41 34 41 -2 0 -19 -17 -38
-37z"/>
<path d="M38910 20425 c0 -5 5 -17 10 -25 5 -8 10 -10 10 -5 0 6 -5 17 -10 25
-5 8 -10 11 -10 5z"/>
<path d="M42794 20368 l-29 -33 33 29 c30 28 37 36 29 36 -2 0 -16 -15 -33
-32z"/>
<path d="M39786 20363 c60 -94 87 -133 92 -133 2 0 -4 12 -14 28 -60 93 -87
132 -92 132 -2 0 4 -12 14 -27z"/>
<path d="M38930 20375 c0 -5 5 -17 10 -25 5 -8 10 -10 10 -5 0 6 -5 17 -10 25
-5 8 -10 11 -10 5z"/>
<path d="M39855 20354 c10 -17 26 -41 37 -55 l20 -24 -17 31 c-10 17 -26 41
-37 55 l-20 24 17 -31z"/>
<path d="M42714 20348 l-29 -33 33 29 c30 28 37 36 29 36 -2 0 -16 -15 -33
-32z"/>
<path d="M42323 20320 c0 -25 2 -35 4 -22 2 12 2 32 0 45 -2 12 -4 2 -4 -23z"/>
<path d="M42739 20303 l-24 -28 28 24 c25 23 32 31 24 31 -2 0 -14 -12 -28
-27z"/>
<path d="M42649 20273 l-24 -28 28 24 c25 23 32 31 24 31 -2 0 -14 -12 -28
-27z"/>
<path d="M40456 20255 c-9 -26 -7 -32 5 -12 6 10 9 21 6 23 -2 3 -7 -2 -11
-11z"/>
<path d="M42669 20223 l-34 -38 38 34 c34 33 42 41 34 41 -2 0 -19 -17 -38
-37z"/>
<path d="M38990 20235 c0 -5 5 -17 10 -25 5 -8 10 -10 10 -5 0 6 -5 17 -10 25
-5 8 -10 11 -10 5z"/>
<path d="M42594 20208 l-29 -33 33 29 c30 28 37 36 29 36 -2 0 -16 -15 -33
-32z"/>
<path d="M39020 20161 c0 -6 4 -13 10 -16 6 -3 7 1 4 9 -7 18 -14 21 -14 7z"/>
<path d="M42599 20143 l-24 -28 28 24 c25 23 32 31 24 31 -2 0 -14 -12 -28
-27z"/>
<path d="M39937 20129 c10 -17 24 -36 32 -42 8 -7 2 7 -14 31 -32 49 -45 57
-18 11z"/>
<path d="M39995 20136 c10 -14 19 -26 22 -26 7 0 -17 39 -28 46 -6 3 -3 -5 6
-20z"/>
<path d="M42519 20123 l-34 -38 38 34 c34 33 42 41 34 41 -2 0 -19 -17 -38
-37z"/>
<path d="M43046 20145 c-9 -26 -7 -32 5 -12 6 10 9 21 6 23 -2 3 -7 -2 -11
-11z"/>
<path d="M39040 20125 c0 -5 5 -17 10 -25 5 -8 10 -10 10 -5 0 6 -5 17 -10 25
-5 8 -10 11 -10 5z"/>
<path d="M42383 20050 c0 -36 2 -50 4 -32 2 17 2 47 0 65 -2 17 -4 3 -4 -33z"/>
<path d="M40035 20076 c10 -14 19 -26 22 -26 7 0 -17 39 -28 46 -6 3 -3 -5 6
-20z"/>
<path d="M42529 20063 l-34 -38 38 34 c34 33 42 41 34 41 -2 0 -19 -17 -38
-37z"/>
<path d="M41739 20053 l-24 -28 28 24 c25 23 32 31 24 31 -2 0 -14 -12 -28
-27z"/>
<path d="M42449 20043 l-34 -38 38 34 c34 33 42 41 34 41 -2 0 -19 -17 -38
-37z"/>
<path d="M42997 20035 c-24 -50 -20 -58 4 -12 11 22 19 41 17 43 -3 2 -12 -12
-21 -31z"/>
<path d="M41525 19953 c-93 -41 -174 -78 -179 -83 -4 -5 -21 -79 -36 -165 -15
-86 -24 -152 -20 -148 3 4 39 53 80 108 41 55 134 159 205 232 72 73 128 133
125 132 -3 0 -81 -34 -175 -76z"/>
<path d="M39090 20016 c0 -10 60 -126 65 -126 3 0 -9 28 -26 63 -33 65 -39 75
-39 63z"/>
<path d="M42332 19966 c-2 -46 -7 -66 -24 -85 l-22 -26 27 26 c26 23 28 31 24
85 l-3 59 -2 -59z"/>
<path d="M42469 19993 l-24 -28 28 24 c25 23 32 31 24 31 -2 0 -14 -12 -28
-27z"/>
<path d="M39278 19993 c7 -3 16 -2 19 1 4 3 -2 6 -13 5 -11 0 -14 -3 -6 -6z"/>
<path d="M41754 19865 c0 -77 2 -107 3 -67 2 40 2 103 0 140 -2 37 -3 4 -3
-73z"/>
<path d="M42394 19978 l-19 -23 23 19 c21 18 27 26 19 26 -2 0 -12 -10 -23
-22z"/>
<path d="M40109 19965 c5 -11 17 -29 26 -40 l16 -20 -10 20 c-5 11 -17 29 -26
40 l-16 20 10 -20z"/>
<path d="M39378 19963 c7 -3 16 -2 19 1 4 3 -2 6 -13 5 -11 0 -14 -3 -6 -6z"/>
<path d="M42668 19953 c6 -2 18 -2 25 0 6 3 1 5 -13 5 -14 0 -19 -2 -12 -5z"/>
<path d="M42553 19943 c9 -2 23 -2 30 0 6 3 -1 5 -18 5 -16 0 -22 -2 -12 -5z"/>
<path d="M40087 19899 c10 -17 24 -36 32 -42 8 -7 2 7 -14 31 -32 49 -45 57
-18 11z"/>
<path d="M40386 19915 c-9 -26 -7 -32 5 -12 6 10 9 21 6 23 -2 3 -7 -2 -11
-11z"/>
<path d="M42698 19903 c7 -3 16 -2 19 1 4 3 -2 6 -13 5 -11 0 -14 -3 -6 -6z"/>
<path d="M42583 19893 c9 -2 23 -2 30 0 6 3 -1 5 -18 5 -16 0 -22 -2 -12 -5z"/>
<path d="M42921 19873 c-10 -26 -10 -27 4 -9 8 11 15 23 15 28 0 15 -7 8 -19
-19z"/>
<path d="M39450 19886 c0 -2 9 -6 20 -9 11 -3 18 -1 14 4 -5 9 -34 13 -34 5z"/>
<path d="M42463 19883 c9 -2 23 -2 30 0 6 3 -1 5 -18 5 -16 0 -22 -2 -12 -5z"/>
<path d="M39160 19871 c0 -6 4 -13 10 -16 6 -3 7 1 4 9 -7 18 -14 21 -14 7z"/>
<path d="M42335 19838 l-40 -43 43 40 c23 21 42 40 42 42 0 8 -9 0 -45 -39z"/>
<path d="M40356 19835 c-9 -26 -7 -32 5 -12 6 10 9 21 6 23 -2 3 -7 -2 -11
-11z"/>
<path d="M42249 19813 l-34 -38 38 34 c34 33 42 41 34 41 -2 0 -19 -17 -38
-37z"/>
<path d="M39728 19803 c7 -3 16 -2 19 1 4 3 -2 6 -13 5 -11 0 -14 -3 -6 -6z"/>
<path d="M39928 19803 c7 -3 16 -2 19 1 4 3 -2 6 -13 5 -11 0 -14 -3 -6 -6z"/>
<path d="M39220 19760 c11 -22 23 -40 25 -40 3 0 -4 18 -15 40 -11 22 -23 40
-25 40 -3 0 4 -18 15 -40z"/>
<path d="M41804 19615 c0 -99 2 -138 3 -87 2 51 2 132 0 180 -1 48 -3 6 -3
-93z"/>
<path d="M42269 19763 l-24 -28 28 24 c25 23 32 31 24 31 -2 0 -14 -12 -28
-27z"/>
<path d="M42184 19738 l-29 -33 33 29 c17 17 32 31 32 33 0 8 -8 1 -36 -29z"/>
<path d="M42855 19749 c-4 -6 -5 -12 -2 -15 2 -3 7 2 10 11 7 17 1 20 -8 4z"/>
<path d="M40135 19740 c11 -5 27 -9 35 -9 9 0 8 4 -5 9 -11 5 -27 9 -35 9 -9
0 -8 -4 5 -9z"/>
<path d="M40256 19737 c3 -10 9 -15 12 -12 3 3 0 11 -7 18 -10 9 -11 8 -5 -6z"/>
<path d="M40306 19705 c-9 -26 -7 -32 5 -12 6 10 9 21 6 23 -2 3 -7 -2 -11
-11z"/>
<path d="M42817 19678 c-35 -61 -51 -95 -40 -83 14 14 76 125 70 125 -3 0 -16
-19 -30 -42z"/>
<path d="M39260 19690 c6 -11 13 -20 16 -20 2 0 0 9 -6 20 -6 11 -13 20 -16
20 -2 0 0 -9 6 -20z"/>
<path d="M42194 19678 l-29 -33 33 29 c30 28 37 36 29 36 -2 0 -16 -15 -33
-32z"/>
<path d="M40138 19683 c7 -3 16 -2 19 1 4 3 -2 6 -13 5 -11 0 -14 -3 -6 -6z"/>
<path d="M42109 19653 l-34 -38 38 34 c34 33 42 41 34 41 -2 0 -19 -17 -38
-37z"/>
<path d="M39293 19635 c9 -16 23 -39 32 -50 9 -11 7 -2 -6 20 -27 49 -47 72
-26 30z"/>
<path d="M42124 19598 l-29 -33 33 29 c30 28 37 36 29 36 -2 0 -16 -15 -33
-32z"/>
<path d="M42039 19573 l-24 -28 28 24 c25 23 32 31 24 31 -2 0 -14 -12 -28
-27z"/>
<path d="M42749 19558 c-7 -13 -19 -34 -27 -48 -14 -24 -13 -24 3 -5 20 24 48
75 41 75 -3 0 -11 -10 -17 -22z"/>
<path d="M39350 19540 c6 -11 13 -20 16 -20 2 0 0 9 -6 20 -6 11 -13 20 -16
20 -2 0 0 -9 6 -20z"/>
<path d="M40381 19543 c7 -12 15 -20 18 -17 3 2 -3 12 -13 22 -17 16 -18 16
-5 -5z"/>
<path d="M42059 19523 l-24 -28 28 24 c25 23 32 31 24 31 -2 0 -14 -12 -28
-27z"/>
<path d="M41979 19503 c-57 -62 -83 -93 -78 -93 3 0 31 29 63 65 62 70 72 89
15 28z"/>
<path d="M40420 19480 c6 -11 13 -20 16 -20 2 0 0 9 -6 20 -6 11 -13 20 -16
20 -2 0 0 -9 6 -20z"/>
<path d="M41959 19408 c-35 -40 -56 -67 -46 -59 21 17 121 131 114 131 -2 0
-33 -33 -68 -72z"/>
<path d="M42690 19460 c-6 -11 -8 -20 -6 -20 3 0 10 9 16 20 6 11 8 20 6 20
-3 0 -10 -9 -16 -20z"/>
<path d="M41086 19363 c-6 -14 -5 -15 5 -6 7 7 10 15 7 18 -3 3 -9 -2 -12 -12z"/>
<path d="M41844 19348 l-29 -33 33 29 c30 28 37 36 29 36 -2 0 -16 -15 -33
-32z"/>
<path d="M41026 19355 c-9 -26 -7 -32 5 -12 6 10 9 21 6 23 -2 3 -7 -2 -11
-11z"/>
<path d="M42615 19344 c-9 -15 -12 -23 -6 -20 11 7 35 46 28 46 -3 0 -12 -12
-22 -26z"/>
<path d="M39490 19333 c13 -18 25 -33 27 -33 8 0 -17 38 -33 51 -11 9 -9 2 6
-18z"/>
<path d="M40530 19310 c6 -11 13 -20 16 -20 2 0 0 9 -6 20 -6 11 -13 20 -16
20 -2 0 0 -9 6 -20z"/>
<path d="M41864 19298 l-29 -33 33 29 c30 28 37 36 29 36 -2 0 -16 -15 -33
-32z"/>
<path d="M39556 19245 c80 -115 407 -465 421 -451 3 3 -12 19 -33 37 -84 70
-226 225 -387 420 l-29 34 28 -40z"/>
<path d="M40570 19250 c6 -11 13 -20 16 -20 2 0 0 9 -6 20 -6 11 -13 20 -16
20 -2 0 0 -9 6 -20z"/>
<path d="M40985 19259 c-4 -6 -5 -12 -2 -15 2 -3 7 2 10 11 7 17 1 20 -8 4z"/>
<path d="M41833 19243 c9 -2 23 -2 30 0 6 3 -1 5 -18 5 -16 0 -22 -2 -12 -5z"/>
<path d="M42539 19233 c-13 -16 -12 -17 4 -4 16 13 21 21 13 21 -2 0 -10 -8
-17 -17z"/>
<path d="M41272 19220 c0 -14 2 -19 5 -12 2 6 2 18 0 25 -3 6 -5 1 -5 -13z"/>
<path d="M41933 19233 c9 -2 25 -2 35 0 9 3 1 5 -18 5 -19 0 -27 -2 -17 -5z"/>
<path d="M40530 19223 c0 -6 8 -17 18 -24 16 -13 16 -13 2 6 -8 11 -16 22 -17
24 -2 2 -3 0 -3 -6z"/>
<path d="M42063 19223 c9 -2 23 -2 30 0 6 3 -1 5 -18 5 -16 0 -22 -2 -12 -5z"/>
<path d="M41222 19200 c0 -14 2 -19 5 -12 2 6 2 18 0 25 -3 6 -5 1 -5 -13z"/>
<path d="M41680 19160 c-29 -33 -50 -60 -47 -60 3 0 28 27 57 60 29 33 50 60
47 60 -3 0 -28 -27 -57 -60z"/>
<path d="M42203 19213 c9 -2 23 -2 30 0 6 3 -1 5 -18 5 -16 0 -22 -2 -12 -5z"/>
<path d="M42283 19203 c9 -2 25 -2 35 0 9 3 1 5 -18 5 -19 0 -27 -2 -17 -5z"/>
<path d="M42509 19193 c-13 -16 -12 -17 4 -4 16 13 21 21 13 21 -2 0 -10 -8
-17 -17z"/>
<path d="M41793 19193 c15 -2 37 -2 50 0 12 2 0 4 -28 4 -27 0 -38 -2 -22 -4z"/>
<path d="M41908 19183 c7 -3 16 -2 19 1 4 3 -2 6 -13 5 -11 0 -14 -3 -6 -6z"/>
<path d="M41730 19145 c-18 -19 -32 -36 -29 -38 2 -2 19 14 38 35 42 48 36 50
-9 3z"/>
<path d="M42038 19173 c6 -2 18 -2 25 0 6 3 1 5 -13 5 -14 0 -19 -2 -12 -5z"/>
<path d="M42153 19163 c9 -2 25 -2 35 0 9 3 1 5 -18 5 -19 0 -27 -2 -17 -5z"/>
<path d="M42479 19153 c-13 -16 -12 -17 4 -4 16 13 21 21 13 21 -2 0 -10 -8
-17 -17z"/>
<path d="M40936 19145 c-9 -26 -7 -32 5 -12 6 10 9 21 6 23 -2 3 -7 -2 -11
-11z"/>
<path d="M40986 19135 c-9 -26 -7 -32 5 -12 6 10 9 21 6 23 -2 3 -7 -2 -11
-11z"/>
<path d="M40660 19110 c6 -11 13 -20 16 -20 2 0 0 9 -6 20 -6 11 -13 20 -16
20 -2 0 0 -9 6 -20z"/>
<path d="M42420 19080 c-23 -27 -40 -50 -37 -50 3 0 24 23 47 50 23 28 40 50
37 50 -3 0 -24 -22 -47 -50z"/>
<path d="M41282 19090 c0 -14 2 -19 5 -12 2 6 2 18 0 25 -3 6 -5 1 -5 -13z"/>
<path d="M41630 19030 c-29 -33 -50 -60 -47 -60 3 0 28 27 57 60 29 33 50 60
47 60 -3 0 -28 -27 -57 -60z"/>
<path d="M41231 19064 c0 -11 3 -14 6 -6 3 7 2 16 -1 19 -3 4 -6 -2 -5 -13z"/>
<path d="M41569 19033 l-34 -38 38 34 c34 33 42 41 34 41 -2 0 -19 -17 -38
-37z"/>
<path d="M40660 19020 c6 -11 13 -20 16 -20 2 0 0 9 -6 20 -6 11 -13 20 -16
20 -2 0 0 -9 6 -20z"/>
<path d="M40872 18995 c-17 -37 -14 -45 4 -12 9 16 14 31 11 33 -2 2 -9 -7
-15 -21z"/>
<path d="M42350 19003 c0 -5 -26 -35 -57 -67 -31 -33 -50 -55 -41 -50 25 14
121 124 109 124 -6 0 -11 -3 -11 -7z"/>
<path d="M41292 18965 c0 -16 2 -22 5 -12 2 9 2 23 0 30 -3 6 -5 -1 -5 -18z"/>
<path d="M41519 18973 c-13 -16 -12 -17 4 -4 16 13 21 21 13 21 -2 0 -10 -8
-17 -17z"/>
<path d="M40198 18953 c7 -3 16 -2 19 1 4 3 -2 6 -13 5 -11 0 -14 -3 -6 -6z"/>
<path d="M40720 18930 c6 -11 13 -20 16 -20 2 0 0 9 -6 20 -6 11 -13 20 -16
20 -2 0 0 -9 6 -20z"/>
<path d="M41524 18908 l-29 -33 33 29 c30 28 37 36 29 36 -2 0 -16 -15 -33
-32z"/>
<path d="M40348 18923 c7 -3 16 -2 19 1 4 3 -2 6 -13 5 -11 0 -14 -3 -6 -6z"/>
<path d="M40790 18910 c6 -11 13 -20 16 -20 2 0 0 9 -6 20 -6 11 -13 20 -16
20 -2 0 0 -9 6 -20z"/>
<path d="M41449 18893 l-24 -28 28 24 c25 23 32 31 24 31 -2 0 -14 -12 -28
-27z"/>
<path d="M40228 18893 c7 -3 16 -2 19 1 4 3 -2 6 -13 5 -11 0 -14 -3 -6 -6z"/>
<path d="M40498 18893 c7 -3 16 -2 19 1 4 3 -2 6 -13 5 -11 0 -14 -3 -6 -6z"/>
<path d="M40288 18883 c7 -3 16 -2 19 1 4 3 -2 6 -13 5 -11 0 -14 -3 -6 -6z"/>
<path d="M40388 18863 c7 -3 16 -2 19 1 4 3 -2 6 -13 5 -11 0 -14 -3 -6 -6z"/>
<path d="M40764 18861 c4 -5 1 -11 -6 -13 -7 -3 -3 -7 10 -10 19 -5 20 -4 11
13 -5 10 -12 19 -15 19 -3 0 -3 -4 0 -9z"/>
<path d="M41252 18850 c0 -14 2 -19 5 -12 2 6 2 18 0 25 -3 6 -5 1 -5 -13z"/>
<path d="M42170 18809 l-65 -61 68 58 c61 52 73 64 64 64 -1 0 -32 -27 -67
-61z"/>
<path d="M40438 18853 c7 -3 16 -2 19 1 4 3 -2 6 -13 5 -11 0 -14 -3 -6 -6z"/>
<path d="M40698 18853 c7 -3 16 -2 19 1 4 3 -2 6 -13 5 -11 0 -14 -3 -6 -6z"/>
<path d="M41381 18817 c-29 -35 -30 -38 -7 -17 24 22 52 60 44 60 -2 0 -18
-19 -37 -43z"/>
<path d="M41454 18828 l-29 -33 33 29 c30 28 37 36 29 36 -2 0 -16 -15 -33
-32z"/>
<path d="M40875 18783 c15 -24 30 -43 32 -43 7 0 -31 61 -46 73 -8 7 -2 -7 14
-30z"/>
<path d="M40025 18755 c42 -39 95 -79 95 -72 0 2 -30 27 -67 56 -38 29 -50 36
-28 16z"/>
<path d="M40790 18786 c0 -2 9 -6 20 -9 11 -3 18 -1 14 4 -5 9 -34 13 -34 5z"/>
<path d="M41313 18755 c0 -21 2 -23 14 -14 8 7 10 15 6 18 -4 4 -11 10 -14 14
-4 4 -6 -4 -6 -18z"/>
<path d="M41384 18748 l-29 -33 33 29 c30 28 37 36 29 36 -2 0 -16 -15 -33
-32z"/>
<path d="M42064 18718 l-19 -23 23 19 c12 11 22 21 22 23 0 8 -8 2 -26 -19z"/>
<path d="M41262 18700 c0 -19 2 -27 5 -17 2 9 2 25 0 35 -3 9 -5 1 -5 -18z"/>
</g>
</svg>
